<svg width="1513" height="1449" viewBox="0 0 1513 1449" fill="none" xmlns="http://www.w3.org/2000/svg">
<rect x="1" y="366" width="1512" height="709" fill="#FABE00"/>
<g clip-path="url(#clip0_122_2)">
<path fill-rule="evenodd" clip-rule="evenodd" d="M1512.89 375V370.284H1512.39L1512.92 370.246L1513 370.209C1252.39 214.663 1095.68 290.116 950.694 312.299C805.71 334.482 706.458 298.981 493.049 115.367C279.64 -68.2848 0 22.3716 0 22.3716V375H1512.89Z" fill="#FABE00"/>
</g>
<g clip-path="url(#clip1_122_2)">
<path fill-rule="evenodd" clip-rule="evenodd" d="M0.113525 359.5L0.113647 1078.72H0.605347L0.0756836 1078.75L0.00012207 1078.79C260.614 1234.34 417.323 1158.88 562.306 1136.7C707.29 1114.52 806.542 1150.02 1019.95 1333.63C1233.36 1517.28 1513 1426.63 1513 1426.63V359.5H0.113525Z" fill="#FABE00"/>
</g>
<defs>
<clipPath id="clip0_122_2">
<rect width="1513" height="375" fill="white"/>
</clipPath>
<clipPath id="clip1_122_2">
<rect width="1513" height="375" fill="white" transform="matrix(-1 0 0 -1 1513 1449)"/>
</clipPath>
</defs>
</svg>
