<?xml version="1.0" encoding="UTF-8"?>
<svg id="_レイヤー_2" data-name="レイヤー 2" xmlns="http://www.w3.org/2000/svg" viewBox="0 0 269.34 269.24">
  <defs>
    <style>
      .cls-1 {
        fill: #ea5504;
        stroke-width: 0px;
      }
    </style>
  </defs>
  <g id="POST_1" data-name="POST 1">
    <path class="cls-1" d="m223.53,189.57c-7.04-4.1-8.39-11.46-2.44-17.03,15.4-14.43,31.5-28.03,48.25-40.68-17.26-11.95-33.98-24.87-49.96-38.65-6.17-5.32-5.13-12.72,1.73-17.12,7.01-4.48,12.94-9.05,15.94-12.18,9.53-9.93,9.2-25.7-.72-35.22-9.92-9.52-25.69-9.19-35.22.73-3.01,3.13-7.32,9.24-11.51,16.43-4.1,7.04-11.45,8.39-17.03,2.44-14.43-15.4-28.06-31.55-40.71-48.3-11.95,17.26-24.9,33.92-38.68,49.91-5.32,6.17-12.73,5.13-17.12-1.73-4.48-7.01-9.05-12.94-12.18-15.94-9.93-9.53-25.69-9.2-35.22.73-9.52,9.92-9.2,25.69.73,35.22,3.13,3,9.24,7.32,16.43,11.51,7.04,4.1,8.39,11.45,2.44,17.03-15.4,14.43-31.52,28.01-48.27,40.66,17.26,11.95,124.83,115.11,137.48,131.86,11.95-17.26,24.92-33.91,38.7-49.89,5.32-6.17,12.72-5.13,17.12,1.73,4.48,7.01,9.05,12.94,12.18,15.94,9.93,9.53,25.69,9.2,35.22-.73,9.52-9.92,9.2-25.69-.73-35.22-3.13-3.01-9.24-7.32-16.43-11.51Z"/>
  </g>
</svg>