<?xml version="1.0" encoding="UTF-8"?>
<svg id="_レイヤー_2" data-name="レイヤー 2" xmlns="http://www.w3.org/2000/svg" viewBox="0 0 211.63 211.63">
  <defs>
    <style>
      .cls-1 {
        fill: #ddd;
        stroke-width: 0px;
      }
    </style>
  </defs>
  <g id="POST_1" data-name="POST 1">
    <path class="cls-1" d="m189.74.56c-20.98-.92-42.06-.7-63.12.6-8.13.5-11.78,7.03-8.97,14.68,2.87,7.81,4.83,15.03,5.33,19.34,1.58,13.67-8.21,26.02-21.88,27.6-13.66,1.58-26.02-8.22-27.6-21.88-.5-4.31-.24-11.79.77-20.05.99-8.09-4.05-13.61-12.08-12.24C41.37,12.15,20.78,16.77.57,22.46c-.92,20.97-.73,42.07.58,63.13.5,8.13,7.03,11.78,14.68,8.97,7.81-2.87,15.03-4.83,19.35-5.33,13.67-1.58,26.02,8.21,27.6,21.88,1.58,13.66-8.22,26.03-21.88,27.61-4.31.5-11.79.24-20.05-.77-8.09-1-13.61,4.05-12.24,12.08,3.54,20.8,8.16,41.39,13.84,61.6l189.15-21.91c.92-20.97-16.17-168.95-21.86-189.16Z"/>
  </g>
</svg>