<svg width="323" height="200" viewBox="0 0 323 200" fill="none" xmlns="http://www.w3.org/2000/svg">
<mask id="path-1-outside-1_122_4" maskUnits="userSpaceOnUse" x="0" y="86" width="319" height="35" fill="black">
<rect fill="white" y="86" width="319" height="35"/>
<path d="M11.1392 119H1.97727L12.2997 87.7273H23.9048L34.2273 119H25.0653L18.2244 96.3395H17.9801L11.1392 119ZM9.42898 106.662H26.6534V113.014H9.42898V106.662ZM50.9919 119H38.9593V87.7273H50.8698C54.0866 87.7273 56.8657 88.3533 59.2071 89.6055C61.5587 90.8474 63.3707 92.6391 64.6432 94.9805C65.9259 97.3117 66.5672 100.106 66.5672 103.364C66.5672 106.621 65.931 109.421 64.6585 111.762C63.386 114.093 61.5841 115.885 59.2529 117.137C56.9217 118.379 54.1681 119 50.9919 119ZM47.4493 111.793H50.6865C52.2339 111.793 53.5522 111.543 54.6414 111.044C55.7409 110.546 56.5756 109.685 57.1457 108.464C57.726 107.242 58.0161 105.542 58.0161 103.364C58.0161 101.185 57.7209 99.4851 57.1304 98.2635C56.5502 97.0419 55.6951 96.1817 54.5651 95.6829C53.4453 95.1841 52.071 94.9347 50.4422 94.9347H47.4493V111.793ZM78.7929 87.7273L85.2062 109.777H85.4506L91.8639 87.7273H101.453L91.131 119H79.5259L69.2034 87.7273H78.7929ZM106.185 119V87.7273H128.724V94.5682H114.675V99.9432H127.563V106.784H114.675V112.159H128.663V119H106.185ZM134.654 119V87.7273H148.153C150.474 87.7273 152.505 88.1497 154.246 88.9947C155.986 89.8396 157.34 91.0561 158.307 92.6442C159.275 94.2322 159.758 96.1359 159.758 98.3551C159.758 100.595 159.259 102.483 158.262 104.02C157.274 105.557 155.885 106.718 154.093 107.502C152.311 108.286 150.23 108.678 147.848 108.678H139.785V102.081H146.137C147.135 102.081 147.985 101.959 148.687 101.714C149.4 101.46 149.945 101.058 150.321 100.508C150.708 99.9585 150.902 99.2408 150.902 98.3551C150.902 97.4593 150.708 96.7314 150.321 96.1715C149.945 95.6014 149.4 95.1841 148.687 94.9194C147.985 94.6445 147.135 94.5071 146.137 94.5071H143.144V119H134.654ZM152.978 104.646L160.796 119H151.573L143.939 104.646H152.978ZM164.242 94.5682V87.7273H191.422V94.5682H182.016V119H173.648V94.5682H164.242ZM204.828 87.7273V119H196.338V87.7273H204.828ZM227.429 97.5C227.348 96.482 226.966 95.688 226.284 95.1179C225.612 94.5478 224.589 94.2628 223.215 94.2628C222.339 94.2628 221.622 94.3697 221.062 94.5834C220.512 94.787 220.105 95.067 219.84 95.4233C219.575 95.7796 219.438 96.1868 219.428 96.6449C219.407 97.0215 219.474 97.3626 219.626 97.668C219.789 97.9632 220.044 98.233 220.39 98.4773C220.736 98.7114 221.179 98.9252 221.718 99.1186C222.258 99.312 222.899 99.4851 223.642 99.6378L226.208 100.188C227.938 100.554 229.419 101.038 230.651 101.638C231.883 102.239 232.891 102.946 233.675 103.761C234.458 104.565 235.034 105.471 235.4 106.479C235.777 107.487 235.97 108.586 235.98 109.777C235.97 111.833 235.456 113.574 234.438 114.999C233.42 116.424 231.964 117.509 230.071 118.252C228.188 118.995 225.923 119.366 223.276 119.366C220.558 119.366 218.186 118.964 216.16 118.16C214.144 117.356 212.577 116.119 211.457 114.45C210.347 112.77 209.787 110.622 209.777 108.006H217.84C217.891 108.963 218.13 109.767 218.557 110.418C218.985 111.07 219.586 111.564 220.359 111.9C221.143 112.235 222.075 112.403 223.154 112.403C224.06 112.403 224.818 112.291 225.429 112.067C226.04 111.844 226.503 111.533 226.818 111.136C227.134 110.739 227.297 110.286 227.307 109.777C227.297 109.299 227.139 108.881 226.834 108.525C226.538 108.158 226.05 107.833 225.368 107.548C224.686 107.252 223.764 106.978 222.604 106.723L219.489 106.051C216.72 105.451 214.536 104.448 212.938 103.043C211.35 101.628 210.561 99.6989 210.571 97.2557C210.561 95.2706 211.09 93.5349 212.159 92.0487C213.238 90.5522 214.73 89.3866 216.633 88.5518C218.547 87.7171 220.741 87.2997 223.215 87.2997C225.739 87.2997 227.923 87.7222 229.765 88.5671C231.608 89.412 233.028 90.6031 234.026 92.1403C235.034 93.6673 235.543 95.4538 235.553 97.5H227.429ZM249.42 87.7273V119H240.93V87.7273H249.42ZM282.222 87.7273V119H275.137L263.837 102.57H263.654V119H255.164V87.7273H262.371L273.487 104.097H273.732V87.7273H282.222ZM308.267 98.0497C308.134 97.5102 307.926 97.0368 307.641 96.6296C307.356 96.2122 306.999 95.861 306.572 95.576C306.154 95.2808 305.666 95.0619 305.106 94.9194C304.556 94.7667 303.95 94.6903 303.289 94.6903C301.864 94.6903 300.647 95.0314 299.639 95.7134C298.642 96.3955 297.878 97.3778 297.349 98.6605C296.83 99.9432 296.57 101.491 296.57 103.303C296.57 105.135 296.819 106.703 297.318 108.006C297.817 109.309 298.56 110.306 299.548 110.999C300.535 111.691 301.762 112.037 303.228 112.037C304.521 112.037 305.595 111.849 306.45 111.472C307.315 111.095 307.961 110.561 308.389 109.869C308.816 109.176 309.03 108.362 309.03 107.425L310.496 107.578H303.35V101.531H317.215V105.868C317.215 108.718 316.609 111.156 315.398 113.182C314.197 115.198 312.537 116.745 310.42 117.824C308.313 118.893 305.895 119.428 303.167 119.428C300.123 119.428 297.451 118.781 295.15 117.488C292.849 116.195 291.053 114.353 289.76 111.961C288.477 109.568 287.836 106.723 287.836 103.425C287.836 100.839 288.228 98.5485 289.011 96.5533C289.805 94.558 290.905 92.8732 292.31 91.4989C293.715 90.1145 295.338 89.071 297.181 88.3686C299.023 87.656 300.998 87.2997 303.106 87.2997C304.958 87.2997 306.679 87.5644 308.267 88.0938C309.865 88.6129 311.275 89.3561 312.497 90.3232C313.728 91.2801 314.721 92.4151 315.474 93.7283C316.227 95.0415 316.686 96.482 316.848 98.0497H308.267Z"/>
</mask>
<path d="M11.1392 119H1.97727L12.2997 87.7273H23.9048L34.2273 119H25.0653L18.2244 96.3395H17.9801L11.1392 119ZM9.42898 106.662H26.6534V113.014H9.42898V106.662ZM50.9919 119H38.9593V87.7273H50.8698C54.0866 87.7273 56.8657 88.3533 59.2071 89.6055C61.5587 90.8474 63.3707 92.6391 64.6432 94.9805C65.9259 97.3117 66.5672 100.106 66.5672 103.364C66.5672 106.621 65.931 109.421 64.6585 111.762C63.386 114.093 61.5841 115.885 59.2529 117.137C56.9217 118.379 54.1681 119 50.9919 119ZM47.4493 111.793H50.6865C52.2339 111.793 53.5522 111.543 54.6414 111.044C55.7409 110.546 56.5756 109.685 57.1457 108.464C57.726 107.242 58.0161 105.542 58.0161 103.364C58.0161 101.185 57.7209 99.4851 57.1304 98.2635C56.5502 97.0419 55.6951 96.1817 54.5651 95.6829C53.4453 95.1841 52.071 94.9347 50.4422 94.9347H47.4493V111.793ZM78.7929 87.7273L85.2062 109.777H85.4506L91.8639 87.7273H101.453L91.131 119H79.5259L69.2034 87.7273H78.7929ZM106.185 119V87.7273H128.724V94.5682H114.675V99.9432H127.563V106.784H114.675V112.159H128.663V119H106.185ZM134.654 119V87.7273H148.153C150.474 87.7273 152.505 88.1497 154.246 88.9947C155.986 89.8396 157.34 91.0561 158.307 92.6442C159.275 94.2322 159.758 96.1359 159.758 98.3551C159.758 100.595 159.259 102.483 158.262 104.02C157.274 105.557 155.885 106.718 154.093 107.502C152.311 108.286 150.23 108.678 147.848 108.678H139.785V102.081H146.137C147.135 102.081 147.985 101.959 148.687 101.714C149.4 101.46 149.945 101.058 150.321 100.508C150.708 99.9585 150.902 99.2408 150.902 98.3551C150.902 97.4593 150.708 96.7314 150.321 96.1715C149.945 95.6014 149.4 95.1841 148.687 94.9194C147.985 94.6445 147.135 94.5071 146.137 94.5071H143.144V119H134.654ZM152.978 104.646L160.796 119H151.573L143.939 104.646H152.978ZM164.242 94.5682V87.7273H191.422V94.5682H182.016V119H173.648V94.5682H164.242ZM204.828 87.7273V119H196.338V87.7273H204.828ZM227.429 97.5C227.348 96.482 226.966 95.688 226.284 95.1179C225.612 94.5478 224.589 94.2628 223.215 94.2628C222.339 94.2628 221.622 94.3697 221.062 94.5834C220.512 94.787 220.105 95.067 219.84 95.4233C219.575 95.7796 219.438 96.1868 219.428 96.6449C219.407 97.0215 219.474 97.3626 219.626 97.668C219.789 97.9632 220.044 98.233 220.39 98.4773C220.736 98.7114 221.179 98.9252 221.718 99.1186C222.258 99.312 222.899 99.4851 223.642 99.6378L226.208 100.188C227.938 100.554 229.419 101.038 230.651 101.638C231.883 102.239 232.891 102.946 233.675 103.761C234.458 104.565 235.034 105.471 235.4 106.479C235.777 107.487 235.97 108.586 235.98 109.777C235.97 111.833 235.456 113.574 234.438 114.999C233.42 116.424 231.964 117.509 230.071 118.252C228.188 118.995 225.923 119.366 223.276 119.366C220.558 119.366 218.186 118.964 216.16 118.16C214.144 117.356 212.577 116.119 211.457 114.45C210.347 112.77 209.787 110.622 209.777 108.006H217.84C217.891 108.963 218.13 109.767 218.557 110.418C218.985 111.07 219.586 111.564 220.359 111.9C221.143 112.235 222.075 112.403 223.154 112.403C224.06 112.403 224.818 112.291 225.429 112.067C226.04 111.844 226.503 111.533 226.818 111.136C227.134 110.739 227.297 110.286 227.307 109.777C227.297 109.299 227.139 108.881 226.834 108.525C226.538 108.158 226.05 107.833 225.368 107.548C224.686 107.252 223.764 106.978 222.604 106.723L219.489 106.051C216.72 105.451 214.536 104.448 212.938 103.043C211.35 101.628 210.561 99.6989 210.571 97.2557C210.561 95.2706 211.09 93.5349 212.159 92.0487C213.238 90.5522 214.73 89.3866 216.633 88.5518C218.547 87.7171 220.741 87.2997 223.215 87.2997C225.739 87.2997 227.923 87.7222 229.765 88.5671C231.608 89.412 233.028 90.6031 234.026 92.1403C235.034 93.6673 235.543 95.4538 235.553 97.5H227.429ZM249.42 87.7273V119H240.93V87.7273H249.42ZM282.222 87.7273V119H275.137L263.837 102.57H263.654V119H255.164V87.7273H262.371L273.487 104.097H273.732V87.7273H282.222ZM308.267 98.0497C308.134 97.5102 307.926 97.0368 307.641 96.6296C307.356 96.2122 306.999 95.861 306.572 95.576C306.154 95.2808 305.666 95.0619 305.106 94.9194C304.556 94.7667 303.95 94.6903 303.289 94.6903C301.864 94.6903 300.647 95.0314 299.639 95.7134C298.642 96.3955 297.878 97.3778 297.349 98.6605C296.83 99.9432 296.57 101.491 296.57 103.303C296.57 105.135 296.819 106.703 297.318 108.006C297.817 109.309 298.56 110.306 299.548 110.999C300.535 111.691 301.762 112.037 303.228 112.037C304.521 112.037 305.595 111.849 306.45 111.472C307.315 111.095 307.961 110.561 308.389 109.869C308.816 109.176 309.03 108.362 309.03 107.425L310.496 107.578H303.35V101.531H317.215V105.868C317.215 108.718 316.609 111.156 315.398 113.182C314.197 115.198 312.537 116.745 310.42 117.824C308.313 118.893 305.895 119.428 303.167 119.428C300.123 119.428 297.451 118.781 295.15 117.488C292.849 116.195 291.053 114.353 289.76 111.961C288.477 109.568 287.836 106.723 287.836 103.425C287.836 100.839 288.228 98.5485 289.011 96.5533C289.805 94.558 290.905 92.8732 292.31 91.4989C293.715 90.1145 295.338 89.071 297.181 88.3686C299.023 87.656 300.998 87.2997 303.106 87.2997C304.958 87.2997 306.679 87.5644 308.267 88.0938C309.865 88.6129 311.275 89.3561 312.497 90.3232C313.728 91.2801 314.721 92.4151 315.474 93.7283C316.227 95.0415 316.686 96.482 316.848 98.0497H308.267Z" fill="white"/>
<path d="M11.1392 119V120H11.8819L12.0965 119.289L11.1392 119ZM1.97727 119L1.02767 118.687L0.594127 120H1.97727V119ZM12.2997 87.7273V86.7273H11.5767L11.3501 87.4138L12.2997 87.7273ZM23.9048 87.7273L24.8544 87.4138L24.6278 86.7273H23.9048V87.7273ZM34.2273 119V120H35.6104L35.1769 118.687L34.2273 119ZM25.0653 119L24.108 119.289L24.3227 120H25.0653V119ZM18.2244 96.3395L19.1818 96.0505L18.9671 95.3395H18.2244V96.3395ZM17.9801 96.3395V95.3395H17.2374L17.0228 96.0505L17.9801 96.3395ZM9.42898 106.662V105.662H8.42898V106.662H9.42898ZM26.6534 106.662H27.6534V105.662H26.6534V106.662ZM26.6534 113.014V114.014H27.6534V113.014H26.6534ZM9.42898 113.014H8.42898V114.014H9.42898V113.014ZM11.1392 119V118H1.97727V119V120H11.1392V119ZM1.97727 119L2.92688 119.313L13.2493 88.0407L12.2997 87.7273L11.3501 87.4138L1.02767 118.687L1.97727 119ZM12.2997 87.7273V88.7273H23.9048V87.7273V86.7273H12.2997V87.7273ZM23.9048 87.7273L22.9552 88.0407L33.2777 119.313L34.2273 119L35.1769 118.687L24.8544 87.4138L23.9048 87.7273ZM34.2273 119V118H25.0653V119V120H34.2273V119ZM25.0653 119L26.0227 118.711L19.1818 96.0505L18.2244 96.3395L17.2671 96.6285L24.108 119.289L25.0653 119ZM18.2244 96.3395V95.3395H17.9801V96.3395V97.3395H18.2244V96.3395ZM17.9801 96.3395L17.0228 96.0505L10.1819 118.711L11.1392 119L12.0965 119.289L18.9374 96.6285L17.9801 96.3395ZM9.42898 106.662V107.662H26.6534V106.662V105.662H9.42898V106.662ZM26.6534 106.662H25.6534V113.014H26.6534H27.6534V106.662H26.6534ZM26.6534 113.014V112.014H9.42898V113.014V114.014H26.6534V113.014ZM9.42898 113.014H10.429V106.662H9.42898H8.42898V113.014H9.42898ZM38.9593 119H37.9593V120H38.9593V119ZM38.9593 87.7273V86.7273H37.9593V87.7273H38.9593ZM59.2071 89.6055L58.7355 90.4873L58.7401 90.4897L59.2071 89.6055ZM64.6432 94.9805L63.7646 95.458L63.7671 95.4625L64.6432 94.9805ZM64.6585 111.762L65.5362 112.241L65.5371 112.24L64.6585 111.762ZM59.2529 117.137L59.7231 118.02L59.7261 118.018L59.2529 117.137ZM47.4493 111.793H46.4493V112.793H47.4493V111.793ZM54.6414 111.044L54.2283 110.134L54.2251 110.135L54.6414 111.044ZM57.1457 108.464L56.2424 108.035L56.2395 108.041L57.1457 108.464ZM57.1304 98.2635L56.2271 98.6926L56.2301 98.6987L57.1304 98.2635ZM54.5651 95.6829L54.1582 96.5964L54.1612 96.5977L54.5651 95.6829ZM47.4493 94.9347V93.9347H46.4493V94.9347H47.4493ZM50.9919 119V118H38.9593V119V120H50.9919V119ZM38.9593 119H39.9593V87.7273H38.9593H37.9593V119H38.9593ZM38.9593 87.7273V88.7273H50.8698V87.7273V86.7273H38.9593V87.7273ZM50.8698 87.7273V88.7273C53.9566 88.7273 56.5669 89.3275 58.7355 90.4873L59.2071 89.6055L59.6787 88.7236C57.1646 87.3791 54.2166 86.7273 50.8698 86.7273V87.7273ZM59.2071 89.6055L58.7401 90.4897C60.917 91.6394 62.586 93.2894 63.7646 95.458L64.6432 94.9805L65.5218 94.503C64.1554 91.9888 62.2004 90.0554 59.6741 88.7212L59.2071 89.6055ZM64.6432 94.9805L63.7671 95.4625C64.9522 97.6164 65.5672 100.237 65.5672 103.364H66.5672H67.5672C67.5672 99.975 66.8996 97.007 65.5193 94.4984L64.6432 94.9805ZM66.5672 103.364H65.5672C65.5672 106.491 64.9568 109.119 63.7799 111.285L64.6585 111.762L65.5371 112.24C66.9051 109.722 67.5672 106.751 67.5672 103.364H66.5672ZM64.6585 111.762L63.7807 111.283C62.6009 113.444 60.9393 115.096 58.7798 116.256L59.2529 117.137L59.7261 118.018C62.229 116.674 64.1711 114.742 65.5362 112.241L64.6585 111.762ZM59.2529 117.137L58.7828 116.255C56.6228 117.405 54.0371 118 50.9919 118V119V120C54.2991 120 57.2206 119.353 59.7231 118.02L59.2529 117.137ZM47.4493 111.793V112.793H50.6865V111.793V110.793H47.4493V111.793ZM50.6865 111.793V112.793C52.3373 112.793 53.8057 112.527 55.0578 111.954L54.6414 111.044L54.2251 110.135C53.2987 110.559 52.1304 110.793 50.6865 110.793V111.793ZM54.6414 111.044L55.0546 111.955C56.3969 111.346 57.3935 110.297 58.0519 108.887L57.1457 108.464L56.2395 108.041C55.7577 109.073 55.0848 109.745 54.2283 110.134L54.6414 111.044ZM57.1457 108.464L58.049 108.893C58.7202 107.48 59.0161 105.61 59.0161 103.364H58.0161H57.0161C57.0161 105.474 56.7317 107.005 56.2424 108.035L57.1457 108.464ZM58.0161 103.364H59.0161C59.0161 101.116 58.7148 99.2435 58.0308 97.8283L57.1304 98.2635L56.2301 98.6987C56.727 99.7267 57.0161 101.255 57.0161 103.364H58.0161ZM57.1304 98.2635L58.0337 97.8344C57.3611 96.4184 56.3396 95.3731 54.9689 94.7681L54.5651 95.6829L54.1612 96.5977C55.0505 96.9903 55.7393 97.6654 56.2271 98.6926L57.1304 98.2635ZM54.5651 95.6829L54.972 94.7694C53.6894 94.1981 52.1674 93.9347 50.4422 93.9347V94.9347V95.9347C51.9746 95.9347 53.2012 96.1701 54.1582 96.5964L54.5651 95.6829ZM50.4422 94.9347V93.9347H47.4493V94.9347V95.9347H50.4422V94.9347ZM47.4493 94.9347H46.4493V111.793H47.4493H48.4493V94.9347H47.4493ZM78.7929 87.7273L79.7531 87.448L79.5435 86.7273H78.7929V87.7273ZM85.2063 109.777L84.246 110.056L84.4557 110.777H85.2063V109.777ZM85.4506 109.777V110.777H86.2011L86.4108 110.056L85.4506 109.777ZM91.8639 87.7273V86.7273H91.1133L90.9037 87.448L91.8639 87.7273ZM101.453 87.7273L102.403 88.0407L102.837 86.7273H101.453V87.7273ZM91.131 119V120H91.854L92.0806 119.313L91.131 119ZM79.5258 119L78.5762 119.313L78.8029 120H79.5258V119ZM69.2034 87.7273V86.7273H67.8203L68.2538 88.0407L69.2034 87.7273ZM78.7929 87.7273L77.8327 88.0066L84.246 110.056L85.2063 109.777L86.1665 109.498L79.7531 87.448L78.7929 87.7273ZM85.2063 109.777V110.777H85.4506V109.777V108.777H85.2063V109.777ZM85.4506 109.777L86.4108 110.056L92.8241 88.0066L91.8639 87.7273L90.9037 87.448L84.4904 109.498L85.4506 109.777ZM91.8639 87.7273V88.7273H101.453V87.7273V86.7273H91.8639V87.7273ZM101.453 87.7273L100.504 87.4138L90.1814 118.687L91.131 119L92.0806 119.313L102.403 88.0407L101.453 87.7273ZM91.131 119V118H79.5258V119V120H91.131V119ZM79.5258 119L80.4755 118.687L70.153 87.4138L69.2034 87.7273L68.2538 88.0407L78.5762 119.313L79.5258 119ZM69.2034 87.7273V88.7273H78.7929V87.7273V86.7273H69.2034V87.7273ZM106.185 119H105.185V120H106.185V119ZM106.185 87.7273V86.7273H105.185V87.7273H106.185ZM128.724 87.7273H129.724V86.7273H128.724V87.7273ZM128.724 94.5682V95.5682H129.724V94.5682H128.724ZM114.675 94.5682V93.5682H113.675V94.5682H114.675ZM114.675 99.9432H113.675V100.943H114.675V99.9432ZM127.563 99.9432H128.563V98.9432H127.563V99.9432ZM127.563 106.784V107.784H128.563V106.784H127.563ZM114.675 106.784V105.784H113.675V106.784H114.675ZM114.675 112.159H113.675V113.159H114.675V112.159ZM128.663 112.159H129.663V111.159H128.663V112.159ZM128.663 119V120H129.663V119H128.663ZM106.185 119H107.185V87.7273H106.185H105.185V119H106.185ZM106.185 87.7273V88.7273H128.724V87.7273V86.7273H106.185V87.7273ZM128.724 87.7273H127.724V94.5682H128.724H129.724V87.7273H128.724ZM128.724 94.5682V93.5682H114.675V94.5682V95.5682H128.724V94.5682ZM114.675 94.5682H113.675V99.9432H114.675H115.675V94.5682H114.675ZM114.675 99.9432V100.943H127.563V99.9432V98.9432H114.675V99.9432ZM127.563 99.9432H126.563V106.784H127.563H128.563V99.9432H127.563ZM127.563 106.784V105.784H114.675V106.784V107.784H127.563V106.784ZM114.675 106.784H113.675V112.159H114.675H115.675V106.784H114.675ZM114.675 112.159V113.159H128.663V112.159V111.159H114.675V112.159ZM128.663 112.159H127.663V119H128.663H129.663V112.159H128.663ZM128.663 119V118H106.185V119V120H128.663V119ZM134.654 119H133.654V120H134.654V119ZM134.654 87.7273V86.7273H133.654V87.7273H134.654ZM154.246 88.9947L153.809 89.8943L154.246 88.9947ZM158.307 92.6442L159.162 92.1241L158.307 92.6442ZM158.262 104.02L157.423 103.476L157.42 103.48L158.262 104.02ZM154.093 107.502L153.692 106.586L153.69 106.586L154.093 107.502ZM139.785 108.678H138.785V109.678H139.785V108.678ZM139.785 102.081V101.081H138.785V102.081H139.785ZM148.687 101.714L149.016 102.659L149.024 102.656L148.687 101.714ZM150.321 100.508L149.503 99.9326L149.496 99.9429L150.321 100.508ZM150.321 96.1715L149.487 96.7228L149.493 96.7314L149.499 96.74L150.321 96.1715ZM148.687 94.9194L148.323 95.8506L148.331 95.8538L148.339 95.8568L148.687 94.9194ZM143.144 94.5071V93.5071H142.144V94.5071H143.144ZM143.144 119V120H144.144V119H143.144ZM152.978 104.646L153.856 104.168L153.572 103.646H152.978V104.646ZM160.796 119V120H162.48L161.675 118.522L160.796 119ZM151.573 119L150.691 119.47L150.973 120H151.573V119ZM143.939 104.646V103.646H142.274L143.056 105.116L143.939 104.646ZM134.654 119H135.654V87.7273H134.654H133.654V119H134.654ZM134.654 87.7273V88.7273H148.153V87.7273V86.7273H134.654V87.7273ZM148.153 87.7273V88.7273C150.353 88.7273 152.229 89.1273 153.809 89.8943L154.246 88.9947L154.682 88.095C152.781 87.1722 150.595 86.7273 148.153 86.7273V87.7273ZM154.246 88.9947L153.809 89.8943C155.385 90.659 156.59 91.7471 157.453 93.1643L158.307 92.6442L159.162 92.1241C158.09 90.3652 156.588 89.0202 154.682 88.095L154.246 88.9947ZM158.307 92.6442L157.453 93.1643C158.308 94.5677 158.758 96.2836 158.758 98.3551H159.758H160.758C160.758 95.9882 160.241 93.8968 159.162 92.1241L158.307 92.6442ZM159.758 98.3551H158.758C158.758 100.445 158.294 102.134 157.423 103.476L158.262 104.02L159.1 104.565C160.225 102.833 160.758 100.745 160.758 98.3551H159.758ZM158.262 104.02L157.42 103.48C156.547 104.839 155.316 105.875 153.692 106.586L154.093 107.502L154.494 108.418C156.453 107.561 158.001 106.276 159.103 104.561L158.262 104.02ZM154.093 107.502L153.69 106.586C152.061 107.303 150.121 107.678 147.848 107.678V108.678V109.678C150.338 109.678 152.562 109.268 154.496 108.417L154.093 107.502ZM147.848 108.678V107.678H139.785V108.678V109.678H147.848V108.678ZM139.785 108.678H140.785V102.081H139.785H138.785V108.678H139.785ZM139.785 102.081V103.081H146.137V102.081V101.081H139.785V102.081ZM146.137 102.081V103.081C147.211 103.081 148.179 102.95 149.016 102.659L148.687 101.714L148.359 100.77C147.791 100.967 147.059 101.081 146.137 101.081V102.081ZM148.687 101.714L149.024 102.656C149.907 102.341 150.635 101.82 151.146 101.073L150.321 100.508L149.496 99.9429C149.255 100.296 148.893 100.579 148.351 100.773L148.687 101.714ZM150.321 100.508L151.139 101.084C151.677 100.319 151.902 99.382 151.902 98.3551H150.902H149.902C149.902 99.0995 149.739 99.5976 149.504 99.9327L150.321 100.508ZM150.902 98.3551H151.902C151.902 97.3197 151.678 96.3756 151.144 95.6031L150.321 96.1715L149.499 96.74C149.739 97.0872 149.902 97.5989 149.902 98.3551H150.902ZM150.321 96.1715L151.156 95.6203C150.649 94.8533 149.924 94.3118 149.036 93.982L148.687 94.9194L148.339 95.8568C148.876 96.0563 149.24 96.3496 149.487 96.7228L150.321 96.1715ZM148.687 94.9194L149.052 93.9881C148.202 93.6558 147.222 93.5071 146.137 93.5071V94.5071V95.5071C147.048 95.5071 147.768 95.6333 148.323 95.8506L148.687 94.9194ZM146.137 94.5071V93.5071H143.144V94.5071V95.5071H146.137V94.5071ZM143.144 94.5071H142.144V119H143.144H144.144V94.5071H143.144ZM143.144 119V118H134.654V119V120H143.144V119ZM152.978 104.646L152.1 105.125L159.918 119.478L160.796 119L161.675 118.522L153.856 104.168L152.978 104.646ZM160.796 119V118H151.573V119V120H160.796V119ZM151.573 119L152.456 118.53L144.821 104.177L143.939 104.646L143.056 105.116L150.691 119.47L151.573 119ZM143.939 104.646V105.646H152.978V104.646V103.646H143.939V104.646ZM164.242 94.5682H163.242V95.5682H164.242V94.5682ZM164.242 87.7273V86.7273H163.242V87.7273H164.242ZM191.422 87.7273H192.422V86.7273H191.422V87.7273ZM191.422 94.5682V95.5682H192.422V94.5682H191.422ZM182.016 94.5682V93.5682H181.016V94.5682H182.016ZM182.016 119V120H183.016V119H182.016ZM173.648 119H172.648V120H173.648V119ZM173.648 94.5682H174.648V93.5682H173.648V94.5682ZM164.242 94.5682H165.242V87.7273H164.242H163.242V94.5682H164.242ZM164.242 87.7273V88.7273H191.422V87.7273V86.7273H164.242V87.7273ZM191.422 87.7273H190.422V94.5682H191.422H192.422V87.7273H191.422ZM191.422 94.5682V93.5682H182.016V94.5682V95.5682H191.422V94.5682ZM182.016 94.5682H181.016V119H182.016H183.016V94.5682H182.016ZM182.016 119V118H173.648V119V120H182.016V119ZM173.648 119H174.648V94.5682H173.648H172.648V119H173.648ZM173.648 94.5682V93.5682H164.242V94.5682V95.5682H173.648V94.5682ZM204.828 87.7273H205.828V86.7273H204.828V87.7273ZM204.828 119V120H205.828V119H204.828ZM196.338 119H195.338V120H196.338V119ZM196.338 87.7273V86.7273H195.338V87.7273H196.338ZM204.828 87.7273H203.828V119H204.828H205.828V87.7273H204.828ZM204.828 119V118H196.338V119V120H204.828V119ZM196.338 119H197.338V87.7273H196.338H195.338V119H196.338ZM196.338 87.7273V88.7273H204.828V87.7273V86.7273H196.338V87.7273ZM227.429 97.5L226.432 97.5797L226.506 98.5H227.429V97.5ZM226.284 95.1179L225.637 95.8804L225.643 95.8852L226.284 95.1179ZM221.062 94.5835L221.409 95.5212L221.418 95.5177L221.062 94.5835ZM219.84 95.4233L219.037 94.827L219.84 95.4233ZM219.428 96.6449L220.426 96.6989L220.427 96.683L220.428 96.6671L219.428 96.6449ZM219.626 97.668L218.732 98.1152L218.741 98.1333L218.751 98.151L219.626 97.668ZM220.39 98.4773L219.813 99.2942L219.821 99.3L219.829 99.3056L220.39 98.4773ZM223.642 99.6378L223.852 98.6599L223.844 98.6582L223.642 99.6378ZM226.208 100.188L225.998 101.165L226 101.166L226.208 100.188ZM230.651 101.638L230.213 102.537L230.651 101.638ZM233.675 103.761L232.954 104.454L232.958 104.459L233.675 103.761ZM235.4 106.479L234.46 106.82L234.463 106.829L235.4 106.479ZM235.98 109.777L236.98 109.782L236.98 109.768L235.98 109.777ZM234.438 114.999L235.252 115.581L234.438 114.999ZM230.071 118.252L229.706 117.321L229.704 117.322L230.071 118.252ZM216.16 118.16L215.789 119.089L215.791 119.09L216.16 118.16ZM211.457 114.45L210.622 115.001L210.626 115.007L211.457 114.45ZM209.777 108.006V107.006H208.773L208.777 108.01L209.777 108.006ZM217.84 108.006L218.838 107.953L218.788 107.006H217.84V108.006ZM218.557 110.418L217.721 110.967L218.557 110.418ZM220.359 111.9L219.961 112.817L219.965 112.819L220.359 111.9ZM225.429 112.067L225.773 113.006L225.429 112.067ZM226.818 111.136L227.601 111.758L226.818 111.136ZM227.307 109.777L228.307 109.797L228.307 109.776L228.307 109.756L227.307 109.777ZM226.834 108.525L226.055 109.152L226.064 109.164L226.074 109.176L226.834 108.525ZM225.368 107.548L224.971 108.465L224.982 108.47L225.368 107.548ZM222.604 106.723L222.818 105.746L222.815 105.745L222.604 106.723ZM219.489 106.051L219.277 107.028L219.278 107.029L219.489 106.051ZM212.938 103.043L212.273 103.79L212.278 103.794L212.938 103.043ZM210.571 97.2557L211.571 97.2598L211.571 97.2506L210.571 97.2557ZM212.159 92.0487L211.348 91.4638L211.347 91.4648L212.159 92.0487ZM216.633 88.5518L216.234 87.6352L216.232 87.636L216.633 88.5518ZM229.765 88.5671L229.349 89.4761L229.765 88.5671ZM234.026 92.1403L233.187 92.6847L233.191 92.6911L234.026 92.1403ZM235.553 97.5V98.5H236.558L236.553 97.495L235.553 97.5ZM227.429 97.5L228.426 97.4203C228.327 96.178 227.844 95.1189 226.925 94.3506L226.284 95.1179L225.643 95.8852C226.088 96.2571 226.369 96.786 226.432 97.5797L227.429 97.5ZM226.284 95.1179L226.931 94.3554C226.001 93.5665 224.7 93.2628 223.215 93.2628V94.2628V95.2628C224.478 95.2628 225.223 95.5291 225.637 95.8804L226.284 95.1179ZM223.215 94.2628V93.2628C222.268 93.2628 221.418 93.3768 220.705 93.6492L221.062 94.5835L221.418 95.5177C221.825 95.3625 222.41 95.2628 223.215 95.2628V94.2628ZM221.062 94.5835L220.714 93.6457C220.04 93.8954 219.449 94.2725 219.037 94.827L219.84 95.4233L220.643 96.0196C220.76 95.8615 220.984 95.6787 221.409 95.5212L221.062 94.5835ZM219.84 95.4233L219.037 94.827C218.645 95.3553 218.443 95.9646 218.428 96.6227L219.428 96.6449L220.428 96.6671C220.433 96.409 220.506 96.2039 220.643 96.0196L219.84 95.4233ZM219.428 96.6449L218.429 96.5909C218.401 97.1222 218.494 97.6387 218.732 98.1152L219.626 97.668L220.521 97.2208C220.454 97.0864 220.414 96.9208 220.426 96.6989L219.428 96.6449ZM219.626 97.668L218.751 98.151C219.003 98.6083 219.374 98.9845 219.813 99.2942L220.39 98.4773L220.966 97.6603C220.713 97.4815 220.575 97.3181 220.502 97.1849L219.626 97.668ZM220.39 98.4773L219.829 99.3056C220.265 99.6002 220.789 99.848 221.381 100.06L221.718 99.1186L222.056 98.1773C221.568 98.0024 221.207 97.8226 220.95 97.649L220.39 98.4773ZM221.718 99.1186L221.381 100.06C221.976 100.273 222.665 100.458 223.441 100.617L223.642 99.6378L223.844 98.6582C223.133 98.5122 222.539 98.3506 222.056 98.1773L221.718 99.1186ZM223.642 99.6378L223.433 100.616L225.998 101.165L226.208 100.188L226.417 99.2097L223.852 98.66L223.642 99.6378ZM226.208 100.188L226 101.166C227.673 101.52 229.072 101.981 230.213 102.537L230.651 101.638L231.089 100.739C229.766 100.094 228.204 99.588 226.415 99.2092L226.208 100.188ZM230.651 101.638L230.213 102.537C231.361 103.097 232.267 103.74 232.954 104.454L233.675 103.761L234.395 103.067C233.515 102.153 232.405 101.381 231.089 100.739L230.651 101.638ZM233.675 103.761L232.958 104.459C233.648 105.166 234.145 105.952 234.46 106.82L235.4 106.479L236.34 106.137C235.923 104.99 235.269 103.964 234.391 103.063L233.675 103.761ZM235.4 106.479L234.463 106.829C234.795 107.716 234.971 108.699 234.98 109.786L235.98 109.777L236.98 109.768C236.969 108.473 236.758 107.257 236.337 106.129L235.4 106.479ZM235.98 109.777L234.98 109.772C234.971 111.659 234.502 113.189 233.624 114.418L234.438 114.999L235.252 115.581C236.41 113.959 236.969 112.008 236.98 109.782L235.98 109.777ZM234.438 114.999L233.624 114.418C232.736 115.662 231.449 116.637 229.706 117.321L230.071 118.252L230.436 119.183C232.48 118.38 234.104 117.187 235.252 115.581L234.438 114.999ZM230.071 118.252L229.704 117.322C227.967 118.007 225.834 118.366 223.276 118.366V119.366V120.366C226.012 120.366 228.408 119.983 230.438 119.182L230.071 118.252ZM223.276 119.366V118.366C220.654 118.366 218.412 117.978 216.529 117.231L216.16 118.16L215.791 119.09C217.959 119.95 220.462 120.366 223.276 120.366V119.366ZM216.16 118.16L216.531 117.231C214.687 116.496 213.286 115.381 212.287 113.893L211.457 114.45L210.626 115.007C211.868 116.857 213.602 118.216 215.789 119.089L216.16 118.16ZM211.457 114.45L212.291 113.898C211.317 112.423 210.787 110.481 210.777 108.002L209.777 108.006L208.777 108.01C208.788 110.763 209.378 113.116 210.623 115.001L211.457 114.45ZM209.777 108.006V109.006H217.84V108.006V107.006H209.777V108.006ZM217.84 108.006L216.841 108.059C216.899 109.152 217.177 110.137 217.721 110.967L218.557 110.418L219.393 109.87C219.083 109.397 218.882 108.773 218.838 107.953L217.84 108.006ZM218.557 110.418L217.721 110.967C218.265 111.795 219.024 112.41 219.961 112.817L220.359 111.9L220.758 110.982C220.147 110.717 219.705 110.345 219.393 109.87L218.557 110.418ZM220.359 111.9L219.965 112.819C220.902 113.22 221.974 113.403 223.154 113.403V112.403V111.403C222.175 111.403 221.384 111.251 220.753 110.98L220.359 111.9ZM223.154 112.403V113.403C224.134 113.403 225.018 113.283 225.773 113.006L225.429 112.067L225.085 111.129C224.618 111.3 223.985 111.403 223.154 111.403V112.403ZM225.429 112.067L225.773 113.006C226.508 112.737 227.143 112.334 227.601 111.758L226.818 111.136L226.036 110.514C225.862 110.732 225.571 110.95 225.085 111.129L225.429 112.067ZM226.818 111.136L227.601 111.758C228.054 111.189 228.292 110.524 228.307 109.797L227.307 109.777L226.307 109.757C226.301 110.048 226.214 110.289 226.036 110.514L226.818 111.136ZM227.307 109.777L228.307 109.756C228.292 109.051 228.052 108.41 227.593 107.874L226.834 108.525L226.074 109.176C226.226 109.353 226.302 109.546 226.307 109.798L227.307 109.777ZM226.834 108.525L227.612 107.898C227.17 107.348 226.51 106.941 225.753 106.625L225.368 107.548L224.982 108.47C225.59 108.724 225.907 108.969 226.055 109.152L226.834 108.525ZM225.368 107.548L225.765 106.63C225 106.299 224.009 106.007 222.818 105.746L222.604 106.723L222.39 107.7C223.52 107.948 224.372 108.206 224.971 108.465L225.368 107.548ZM222.604 106.723L222.815 105.745L219.7 105.074L219.489 106.051L219.278 107.029L222.393 107.701L222.604 106.723ZM219.489 106.051L219.701 105.074C217.045 104.498 215.033 103.553 213.598 102.292L212.938 103.043L212.278 103.794C214.039 105.342 216.395 106.403 219.277 107.028L219.489 106.051ZM212.938 103.043L213.603 102.296C212.262 101.101 211.562 99.4635 211.571 97.2598L210.571 97.2557L209.571 97.2515C209.56 99.9342 210.438 102.155 212.273 103.79L212.938 103.043ZM210.571 97.2557L211.571 97.2506C211.562 95.4579 212.036 93.9326 212.971 92.6325L212.159 92.0487L211.347 91.4648C210.145 93.1372 209.56 95.0833 209.571 97.2608L210.571 97.2557ZM212.159 92.0487L212.97 92.6335C213.932 91.2997 215.274 90.24 217.035 89.4677L216.633 88.5518L216.232 87.636C214.186 88.5332 212.545 89.8047 211.348 91.4638L212.159 92.0487ZM216.633 88.5518L217.033 89.4684C218.8 88.6979 220.854 88.2997 223.215 88.2997V87.2997V86.2997C220.628 86.2997 218.295 86.7363 216.234 87.6352L216.633 88.5518ZM223.215 87.2997V88.2997C225.63 88.2997 227.665 88.704 229.349 89.4761L229.765 88.5671L230.182 87.6581C228.181 86.7404 225.849 86.2997 223.215 86.2997V87.2997ZM229.765 88.5671L229.349 89.4761C231.038 90.2507 232.303 91.3232 233.187 92.6847L234.026 92.1403L234.865 91.5959C233.753 89.883 232.178 88.5734 230.182 87.6581L229.765 88.5671ZM234.026 92.1403L233.191 92.6911C234.08 94.0373 234.543 95.6292 234.553 97.505L235.553 97.5L236.553 97.495C236.542 95.2785 235.988 93.2972 234.86 91.5894L234.026 92.1403ZM235.553 97.5V96.5H227.429V97.5V98.5H235.553V97.5ZM249.42 87.7273H250.42V86.7273H249.42V87.7273ZM249.42 119V120H250.42V119H249.42ZM240.93 119H239.93V120H240.93V119ZM240.93 87.7273V86.7273H239.93V87.7273H240.93ZM249.42 87.7273H248.42V119H249.42H250.42V87.7273H249.42ZM249.42 119V118H240.93V119V120H249.42V119ZM240.93 119H241.93V87.7273H240.93H239.93V119H240.93ZM240.93 87.7273V88.7273H249.42V87.7273V86.7273H240.93V87.7273ZM282.222 87.7273H283.222V86.7273H282.222V87.7273ZM282.222 119V120H283.222V119H282.222ZM275.137 119L274.313 119.567L274.611 120H275.137V119ZM263.837 102.57L264.661 102.003L264.363 101.57H263.837V102.57ZM263.654 102.57V101.57H262.654V102.57H263.654ZM263.654 119V120H264.654V119H263.654ZM255.164 119H254.164V120H255.164V119ZM255.164 87.7273V86.7273H254.164V87.7273H255.164ZM262.371 87.7273L263.198 87.1655L262.901 86.7273H262.371V87.7273ZM273.487 104.097L272.66 104.658L272.958 105.097H273.487V104.097ZM273.732 104.097V105.097H274.732V104.097H273.732ZM273.732 87.7273V86.7273H272.732V87.7273H273.732ZM282.222 87.7273H281.222V119H282.222H283.222V87.7273H282.222ZM282.222 119V118H275.137V119V120H282.222V119ZM275.137 119L275.961 118.433L264.661 102.003L263.837 102.57L263.013 103.136L274.313 119.567L275.137 119ZM263.837 102.57V101.57H263.654V102.57V103.57H263.837V102.57ZM263.654 102.57H262.654V119H263.654H264.654V102.57H263.654ZM263.654 119V118H255.164V119V120H263.654V119ZM255.164 119H256.164V87.7273H255.164H254.164V119H255.164ZM255.164 87.7273V88.7273H262.371V87.7273V86.7273H255.164V87.7273ZM262.371 87.7273L261.544 88.2891L272.66 104.658L273.487 104.097L274.315 103.535L263.198 87.1655L262.371 87.7273ZM273.487 104.097V105.097H273.732V104.097V103.097H273.487V104.097ZM273.732 104.097H274.732V87.7273H273.732H272.732V104.097H273.732ZM273.732 87.7273V88.7273H282.222V87.7273V86.7273H273.732V87.7273ZM308.267 98.0497L307.296 98.2879L307.482 99.0497H308.267V98.0497ZM307.641 96.6296L306.815 97.1936L306.821 97.2031L307.641 96.6296ZM306.572 95.576L305.994 96.3924L306.006 96.4004L306.017 96.408L306.572 95.576ZM305.106 94.9194L304.838 95.8829L304.849 95.8858L304.859 95.8885L305.106 94.9194ZM299.639 95.7134L299.079 94.8852L299.075 94.8879L299.639 95.7134ZM297.349 98.6605L296.424 98.279L296.422 98.2853L297.349 98.6605ZM297.318 108.006L296.384 108.363L297.318 108.006ZM299.548 110.999L298.974 111.817L299.548 110.999ZM306.45 111.472L306.051 110.555L306.047 110.557L306.45 111.472ZM308.389 109.869L307.538 109.343L308.389 109.869ZM309.03 107.425L309.134 106.431L308.03 106.316V107.425H309.03ZM310.496 107.578V108.578L310.6 106.584L310.496 107.578ZM303.35 107.578H302.35V108.578H303.35V107.578ZM303.35 101.531V100.531H302.35V101.531H303.35ZM317.215 101.531H318.215V100.531H317.215V101.531ZM315.398 113.182L314.54 112.669L314.539 112.67L315.398 113.182ZM310.42 117.824L310.872 118.716L310.874 118.715L310.42 117.824ZM295.15 117.488L294.66 118.36L295.15 117.488ZM289.76 111.961L288.878 112.433L288.88 112.436L289.76 111.961ZM289.011 96.5533L288.082 96.1835L288.081 96.1876L289.011 96.5533ZM292.31 91.4989L293.009 92.2138L293.012 92.2112L292.31 91.4989ZM297.181 88.3686L297.537 89.303L297.542 89.3013L297.181 88.3686ZM308.267 88.0938L307.951 89.0425L307.958 89.0448L308.267 88.0938ZM312.497 90.3232L311.876 91.1072L311.883 91.1129L312.497 90.3232ZM315.474 93.7283L316.342 93.2308L315.474 93.7283ZM316.848 98.0497V99.0497H317.958L317.843 97.9464L316.848 98.0497ZM308.267 98.0497L309.238 97.8115C309.08 97.1659 308.824 96.576 308.46 96.0562L307.641 96.6296L306.821 97.2031C307.028 97.4977 307.189 97.8545 307.296 98.2879L308.267 98.0497ZM307.641 96.6296L308.467 96.0657C308.108 95.5406 307.659 95.0989 307.127 94.7439L306.572 95.576L306.017 96.408C306.34 96.6231 306.603 96.8839 306.815 97.1936L307.641 96.6296ZM306.572 95.576L307.149 94.7596C306.62 94.3851 306.016 94.1191 305.353 93.9503L305.106 94.9194L304.859 95.8885C305.316 96.0047 305.689 96.1765 305.994 96.3924L306.572 95.576ZM305.106 94.9194L305.374 93.9559C304.724 93.7755 304.027 93.6903 303.289 93.6903V94.6903V95.6903C303.874 95.6903 304.388 95.7579 304.838 95.8829L305.106 94.9194ZM303.289 94.6903V93.6903C301.699 93.6903 300.279 94.0731 299.079 94.8853L299.639 95.7134L300.2 96.5416C301.015 95.9897 302.028 95.6903 303.289 95.6903V94.6903ZM299.639 95.7134L299.075 94.8879C297.894 95.6954 297.017 96.8438 296.424 98.279L297.349 98.6605L298.273 99.042C298.74 97.9118 299.389 97.0956 300.204 96.5389L299.639 95.7134ZM297.349 98.6605L296.422 98.2853C295.842 99.7178 295.57 101.4 295.57 103.303H296.57H297.57C297.57 101.581 297.817 100.169 298.276 99.0357L297.349 98.6605ZM296.57 103.303H295.57C295.57 105.221 295.831 106.916 296.384 108.363L297.318 108.006L298.252 107.648C297.808 106.489 297.57 105.049 297.57 103.303H296.57ZM297.318 108.006L296.384 108.363C296.943 109.822 297.798 110.994 298.974 111.817L299.548 110.999L300.122 110.18C299.322 109.619 298.691 108.795 298.252 107.648L297.318 108.006ZM299.548 110.999L298.974 111.817C300.163 112.651 301.601 113.037 303.228 113.037V112.037V111.037C301.922 111.037 300.908 110.731 300.122 110.18L299.548 110.999ZM303.228 112.037V113.037C304.61 113.037 305.832 112.837 306.853 112.387L306.45 111.472L306.047 110.557C305.357 110.86 304.432 111.037 303.228 111.037V112.037ZM306.45 111.472L306.849 112.389C307.87 111.944 308.689 111.286 309.24 110.394L308.389 109.869L307.538 109.343C307.234 109.835 306.76 110.246 306.051 110.555L306.45 111.472ZM308.389 109.869L309.24 110.394C309.779 109.521 310.03 108.519 310.03 107.425H309.03H308.03C308.03 108.205 307.854 108.831 307.538 109.343L308.389 109.869ZM309.03 107.425L308.927 108.42L310.393 108.573L310.496 107.578L310.6 106.584L309.134 106.431L309.03 107.425ZM310.496 107.578V106.578H303.35V107.578V108.578H310.496V107.578ZM303.35 107.578H304.35V101.531H303.35H302.35V107.578H303.35ZM303.35 101.531V102.531H317.215V101.531V100.531H303.35V101.531ZM317.215 101.531H316.215V105.868H317.215H318.215V101.531H317.215ZM317.215 105.868H316.215C316.215 108.575 315.641 110.828 314.54 112.669L315.398 113.182L316.256 113.695C317.578 111.485 318.215 108.861 318.215 105.868H317.215ZM315.398 113.182L314.539 112.67C313.435 114.522 311.917 115.939 309.966 116.933L310.42 117.824L310.874 118.715C313.157 117.552 314.958 115.874 316.257 113.694L315.398 113.182ZM310.42 117.824L309.967 116.932C308.021 117.92 305.762 118.428 303.167 118.428V119.428V120.428C306.028 120.428 308.605 119.866 310.872 118.716L310.42 117.824ZM303.167 119.428V118.428C300.268 118.428 297.769 117.813 295.64 116.617L295.15 117.488L294.66 118.36C297.132 119.749 299.978 120.428 303.167 120.428V119.428ZM295.15 117.488L295.64 116.617C293.509 115.419 291.845 113.716 290.639 111.485L289.76 111.961L288.88 112.436C290.26 114.989 292.189 116.972 294.66 118.36L295.15 117.488ZM289.76 111.961L290.641 111.488C289.451 109.269 288.836 106.593 288.836 103.425H287.836H286.836C286.836 106.853 287.503 109.867 288.878 112.433L289.76 111.961ZM287.836 103.425H288.836C288.836 100.939 289.212 98.7764 289.942 96.9189L289.011 96.5533L288.081 96.1876C287.243 98.3207 286.836 100.739 286.836 103.425H287.836ZM289.011 96.5533L289.941 96.923C290.688 95.0454 291.713 93.4816 293.009 92.2138L292.31 91.4989L291.61 90.7841C290.097 92.2648 288.923 94.0706 288.082 96.1835L289.011 96.5533ZM292.31 91.4989L293.012 92.2112C294.318 90.9239 295.824 89.9561 297.537 89.303L297.181 88.3686L296.825 87.4342C294.853 88.1859 293.111 89.3051 291.608 90.7867L292.31 91.4989ZM297.181 88.3686L297.542 89.3013C299.262 88.6361 301.113 88.2997 303.106 88.2997V87.2997V86.2997C300.883 86.2997 298.785 86.6759 296.82 87.4359L297.181 88.3686ZM303.106 87.2997V88.2997C304.862 88.2997 306.475 88.5505 307.951 89.0424L308.267 88.0938L308.583 87.1451C306.883 86.5783 305.054 86.2997 303.106 86.2997V87.2997ZM308.267 88.0938L307.958 89.0448C309.452 89.5302 310.754 90.2195 311.876 91.1072L312.497 90.3232L313.117 89.5391C311.795 88.4927 310.278 87.6957 308.576 87.1427L308.267 88.0938ZM312.497 90.3232L311.883 91.1129C313.015 91.9923 313.92 93.0291 314.607 94.2259L315.474 93.7283L316.342 93.2308C315.521 91.8011 314.441 90.5678 313.11 89.5334L312.497 90.3232ZM315.474 93.7283L314.607 94.2259C315.288 95.4131 315.705 96.7184 315.854 98.1531L316.848 98.0497L317.843 97.9464C317.666 96.2456 317.167 94.67 316.342 93.2308L315.474 93.7283ZM316.848 98.0497V97.0497H308.267V98.0497V99.0497H316.848V98.0497Z" fill="black" mask="url(#path-1-outside-1_122_4)"/>
<g clip-path="url(#clip0_122_4)">
<path d="M224.996 49.4843L228.13 52.6204L231.263 49.4842L228.13 46.3481L224.996 49.4843Z" fill="#EA5504"/>
<path d="M247.755 26.5714L254.04 32.8608L260.324 26.5714L254.04 20.282L247.755 26.5714Z" fill="#EA5504"/>
<path d="M213.842 7.35856L219.528 13.0491L225.214 7.35856L219.528 1.66805L213.842 7.35856Z" fill="#EA5504"/>
<path d="M281.242 200H15.7583C15.3397 200 15 199.66 15 199.241C15 198.822 15.3397 198.482 15.7583 198.482H281.242C281.66 198.482 282 198.822 282 199.241C282 199.66 281.66 200 281.242 200Z" fill="#231F20"/>
<path d="M50.4572 189.7L24.979 115.918C23.517 111.686 26.6593 107.272 31.1332 107.272H134.026C135.257 107.272 136.346 108.067 136.719 109.242L163.578 193.607H232.487C233.785 193.607 234.838 194.66 234.838 195.956C234.838 197.256 233.785 198.306 232.487 198.306H62.5321C57.0846 198.306 52.2377 194.848 50.4572 189.697V189.7Z" fill="#10002B"/>
<path d="M62.8414 190.589C59.502 190.589 56.5234 188.467 55.4315 185.304L29.9533 111.522C29.7227 110.854 29.9836 110.338 30.1595 110.092C30.3354 109.846 30.7358 109.43 31.4425 109.43H131.575C132.855 109.43 133.986 110.256 134.375 111.476L159.559 190.586H62.8414V190.589Z" fill="white"/>
<path d="M232.487 193.607H163.578L163.569 193.577H62.4866C58.3099 193.577 54.5944 190.926 53.2295 186.977L27.0597 111.188C26.8109 110.463 26.6593 109.388 27.7694 108.207C24.7545 109.998 24.0933 113.34 24.982 115.918L50.4602 189.7C52.2407 194.852 57.0876 198.309 62.5351 198.309H232.49C233.788 198.309 234.841 197.256 234.841 195.96C234.841 194.663 233.788 193.61 232.49 193.61L232.487 193.607Z" fill="#BEBCBA"/>
<path d="M233.121 193.607H126.558C125.61 193.607 124.842 194.376 124.842 195.325V196.591C124.842 197.54 125.61 198.309 126.558 198.309H233.121C234.069 198.309 234.838 197.54 234.838 196.591V195.325C234.838 194.376 234.069 193.607 233.121 193.607Z" fill="#E5E4E3"/>
<path d="M95.2095 53.5234L116.87 44.9447L131.269 81.3632L109.609 89.9419C101.481 93.1611 92.2698 89.1698 89.0533 81.0348L86.31 74.0966C83.0934 65.9616 87.0814 56.7426 95.2095 53.5234Z" fill="#EA5504"/>
<path d="M131.266 81.3684C131.266 81.3684 183.296 88.9273 193.248 76.9879C212.241 54.1991 188.492 5.83756 165.064 5.69792C149.531 5.60382 116.867 44.9493 116.867 44.9493L131.266 81.3684Z" fill="#FABE00"/>
<path d="M162.968 16.3562C175.464 19.6712 187.315 35.8514 188.276 48.7561C188.95 57.7933 186.638 62.79 181.331 71.2626C181.331 71.2626 168.688 65.8621 161.275 44.5607C161.275 44.5607 157.311 30.2991 162.134 18.548L162.968 16.3562Z" fill="#10002B"/>
<path d="M189.845 45.1162L169.65 61.1781L162.465 48.3887L160.147 37.1415L185.856 35.0256L189.845 45.1162Z" fill="#EA5504"/>
<path d="M163.842 12.3917C161.588 16.9574 160.126 21.863 159.462 26.9084C158.8 31.9233 158.955 37.0384 159.92 42.0048C160.824 46.6555 162.477 51.1513 164.779 55.289C166.957 59.208 169.717 62.8175 172.914 65.9594C176.123 69.1135 179.793 71.8243 183.778 73.9159C184.273 74.177 184.776 74.4259 185.28 74.6688C185.65 74.8448 186.099 74.772 186.317 74.3956C186.511 74.0647 186.417 73.5334 186.044 73.3574C182.11 71.4752 178.467 69.0194 175.246 66.0808C172.025 63.1423 169.225 59.7545 166.96 56.0266C164.603 52.144 162.853 47.9274 161.794 43.5075C160.651 38.7415 160.32 33.7933 160.754 28.9149C161.185 24.07 162.398 19.2554 164.375 14.8111C164.621 14.2556 164.882 13.7062 165.149 13.1628C165.331 12.7955 165.249 12.3401 164.876 12.1246C164.542 11.9272 164.02 12.0274 163.838 12.3978L163.842 12.3917Z" fill="#231F20"/>
<path d="M189.902 45.2594C191.813 44.5024 192.456 41.5963 191.338 38.7684C190.22 35.9405 187.764 34.2616 185.853 35.0186C183.942 35.7755 183.299 38.6816 184.417 41.5095C185.535 44.3375 187.991 46.0163 189.902 45.2594Z" fill="white"/>
<path d="M127.71 81.2749L118.843 87.1223L131.268 105.997L140.136 100.15L127.71 81.2749Z" fill="#EA5504"/>
<path d="M116.255 164.807C127.802 164.473 116.452 141.587 118.73 130.252C126.904 131.882 132.619 129.621 139.486 124.894C141.069 123.804 142.631 122.453 143.177 120.611C143.987 117.876 142.331 115.061 140.62 112.782C137.705 108.902 134.396 105.317 130.762 102.102C129.103 100.636 127.283 99.1029 126.713 96.9597C126.288 95.3568 126.64 93.6629 126.995 92.0449C127.826 88.2351 128.924 84.3859 129.51 80.5305C129.934 77.7468 127.389 75.5702 125.109 78.2507C124.359 79.1311 123.974 80.2543 123.522 81.3198C120.914 87.4883 115.824 92.2331 110.592 96.4102C105.36 100.587 99.7759 104.458 95.575 109.673C90.722 115.699 88.0104 123.17 86.0813 130.668C84.1522 138.166 82.9208 145.843 80.5853 153.223C80.5853 153.223 103.03 165.196 116.252 164.813L116.255 164.807Z" fill="white"/>
<path d="M123.088 168.098C123.27 166.14 123.07 164.142 122.858 162.193C122.564 159.495 122.154 156.808 121.733 154.125C120.859 148.548 119.84 142.972 119.382 137.34C119.276 136.05 119.206 134.757 119.212 133.464C119.215 132.899 119.233 132.331 119.279 131.77C119.3 131.521 119.324 131.272 119.355 131.026C119.333 131.184 119.376 130.886 119.385 130.829C119.406 130.701 119.427 130.577 119.455 130.449C119.142 130.625 118.833 130.801 118.521 130.981C121.132 131.494 123.804 131.7 126.449 131.363C128.955 131.044 131.348 130.288 133.632 129.217C136.055 128.085 138.412 126.658 140.547 125.049C141.624 124.238 142.646 123.312 143.322 122.135C144.026 120.908 144.251 119.518 144.05 118.128C143.632 115.225 141.609 112.776 139.837 110.557C137.933 108.17 135.873 105.906 133.68 103.781C132.64 102.773 131.557 101.817 130.477 100.848C129.51 99.9802 128.539 99.0664 127.902 97.919C127.192 96.6409 127.162 95.2081 127.399 93.7935C127.659 92.2362 128.054 90.694 128.424 89.158C128.809 87.5551 129.2 85.9553 129.549 84.3464C129.722 83.545 129.883 82.7405 130.028 81.933C130.156 81.2197 130.329 80.4759 130.298 79.7474C130.25 78.6272 129.801 77.5101 128.891 76.821C127.96 76.1167 126.746 76.1197 125.752 76.6904C124.517 77.3977 123.798 78.6788 123.261 79.9447C122.718 81.2227 122.172 82.4795 121.478 83.6846C120.122 86.0312 118.414 88.1471 116.531 90.0899C112.57 94.176 107.905 97.4545 103.488 101.012C101.232 102.828 99.0327 104.725 97.04 106.832C95.0593 108.926 93.3183 111.237 91.8473 113.717C88.8991 118.686 86.9882 124.214 85.5202 129.781C83.8853 135.986 82.7691 142.313 81.1403 148.518C80.746 150.026 80.3183 151.526 79.8482 153.011C79.554 153.946 81.019 154.343 81.3102 153.414C83.1877 147.458 84.3585 141.32 85.7476 135.24C87.0155 129.687 88.4805 124.129 90.8463 118.929C91.9959 116.403 93.3487 113.966 94.9623 111.707C96.588 109.43 98.508 107.384 100.564 105.496C104.668 101.723 109.285 98.5716 113.522 94.9592C117.553 91.5258 121.36 87.5885 123.68 82.7679C124.262 81.5597 124.644 80.227 125.391 79.1068C125.864 78.3965 126.804 77.4858 127.717 77.8713C128.533 78.2174 128.812 79.2556 128.782 80.0661C128.754 80.7856 128.572 81.5141 128.439 82.2214C128.29 82.9986 128.126 83.7757 127.957 84.5468C127.611 86.098 127.232 87.6401 126.862 89.1853C126.504 90.6849 126.109 92.1937 125.888 93.7206C125.676 95.1899 125.688 96.6531 126.282 98.0374C126.792 99.2304 127.644 100.241 128.566 101.14C129.546 102.093 130.602 102.964 131.602 103.896C132.658 104.883 133.686 105.9 134.681 106.944C136.689 109.057 138.612 111.285 140.314 113.653C141.769 115.678 143.413 118.471 142.206 120.999C141.672 122.113 140.753 123 139.78 123.737C138.706 124.551 137.553 125.283 136.404 125.984C134.311 127.262 132.109 128.385 129.758 129.108C127.493 129.803 125.148 130.094 122.779 129.994C121.481 129.939 120.192 129.766 118.918 129.517C118.539 129.442 118.069 129.621 117.984 130.049C117.58 132.086 117.644 134.201 117.774 136.263C117.947 138.989 118.299 141.7 118.684 144.401C119.488 150.033 120.547 155.627 121.22 161.277C121.487 163.52 121.763 165.836 121.554 168.098C121.514 168.508 121.93 168.857 122.312 168.857C122.755 168.857 123.031 168.508 123.07 168.098H123.088Z" fill="#231F20"/>
<path d="M109.236 123.747C111.623 127.456 115.472 130.149 119.791 131.066C120.744 131.266 121.15 129.806 120.195 129.602C116.258 128.768 112.727 126.372 110.546 122.982C110.019 122.162 108.705 122.924 109.236 123.747Z" fill="#231F20"/>
<path d="M137.032 95.0896C134.284 96.5346 131.42 97.7641 128.481 98.7658C126.716 99.3669 124.654 99.5247 123.176 100.766C121.757 101.959 120.883 104.828 122.218 106.367C121.293 105.274 119.722 107.694 119.54 108.434C119.054 110.411 120.41 111.686 122.012 112.514C120.641 113.213 119.834 114.87 120.128 116.379C120.286 117.186 120.75 117.915 121.381 118.437C121.987 118.938 122.84 119.014 123.331 119.609C124.414 120.92 123.795 122.663 125.545 123.567C127.135 124.39 129.03 124.235 130.811 124.062C135.527 123.604 140.244 123.145 144.963 122.687C147.338 122.456 150.159 121.913 151.069 119.706C151.906 117.678 150.611 115.313 151.184 113.194C151.482 112.096 152.264 111.161 152.482 110.043C152.916 107.855 151.133 105.906 149.474 104.415C150.684 102.979 151.063 100.888 150.432 99.121C149.801 97.3542 148.182 95.976 146.337 95.633C148.776 94.3702 149.352 90.7789 147.854 88.4749C146.356 86.1738 143.35 85.1781 140.623 85.4999C137.896 85.8247 135.421 87.2667 133.271 88.9757L137.038 95.0896H137.032Z" fill="white"/>
<path d="M136.65 94.4341C135.142 95.2234 133.604 95.958 132.033 96.6137C130.517 97.2482 128.967 97.8735 127.377 98.3046C125.997 98.678 124.547 98.9482 123.322 99.7253C122.2 100.436 121.438 101.528 121.047 102.791C120.613 104.194 120.717 105.745 121.678 106.902L122.752 105.827C121.275 104.203 119.364 106.732 118.875 108.025C118.508 108.993 118.663 110.162 119.179 111.042C119.737 111.989 120.668 112.663 121.627 113.167V111.856C119.925 112.757 118.982 114.813 119.418 116.692C119.646 117.672 120.274 118.574 121.084 119.157C121.445 119.418 121.866 119.554 122.26 119.752C122.609 119.928 122.819 120.134 123.001 120.483C123.313 121.084 123.377 121.84 123.637 122.49C124.014 123.422 124.681 124.032 125.603 124.421C127.672 125.289 130.004 124.894 132.161 124.685C134.569 124.451 136.977 124.217 139.385 123.983C141.682 123.762 144.002 123.616 146.286 123.279C147.909 123.042 149.671 122.569 150.857 121.361C151.491 120.714 151.906 119.879 152.04 118.984C152.191 117.976 152.043 116.989 151.912 115.987C151.773 114.931 151.67 113.869 152.091 112.864C152.552 111.765 153.223 110.803 153.295 109.576C153.435 107.248 151.603 105.317 150.004 103.878V104.953C151.4 103.259 151.918 100.842 151.096 98.766C150.326 96.8171 148.6 95.3084 146.532 94.9046C146.592 95.3661 146.653 95.8305 146.713 96.292C149.592 94.7559 150.199 90.6 148.442 88.0045C146.319 84.8717 142.112 84.1158 138.664 85.1358C136.465 85.7885 134.517 87.0301 132.731 88.4417C132.476 88.642 132.452 89.1004 132.612 89.3615C133.71 91.1434 134.808 92.9254 135.906 94.7043C136.064 94.9593 136.222 95.2173 136.38 95.4723C136.892 96.3011 138.203 95.5421 137.69 94.7073C136.592 92.9254 135.494 91.1434 134.396 89.3645C134.238 89.1095 134.081 88.8515 133.923 88.5965C133.883 88.9031 133.844 89.2097 133.805 89.5163C136.34 87.5127 139.61 85.7156 142.952 86.3106C144.369 86.5626 145.725 87.1728 146.71 88.2443C147.59 89.1976 147.975 90.4209 147.902 91.6868C147.827 93.0255 147.165 94.3309 145.949 94.9805C145.397 95.275 145.488 96.2403 146.131 96.3678C147.666 96.6684 149.031 97.7066 149.637 99.1698C150.271 100.706 149.989 102.597 148.934 103.881C148.685 104.185 148.606 104.658 148.934 104.956C150.123 106.027 151.633 107.418 151.779 109.124C151.855 110.01 151.448 110.763 151.06 111.531C150.596 112.448 150.28 113.359 150.271 114.397C150.265 115.307 150.444 116.203 150.541 117.102C150.626 117.9 150.678 118.759 150.332 119.509C149.728 120.817 148.245 121.345 146.923 121.637C145.054 122.047 143.098 122.113 141.196 122.299C138.988 122.514 136.78 122.727 134.572 122.942C133.444 123.052 132.312 123.161 131.184 123.27C130.183 123.367 129.176 123.476 128.169 123.434C127.32 123.398 126.337 123.252 125.63 122.739C125.109 122.359 124.981 121.798 124.823 121.188C124.608 120.362 124.341 119.466 123.674 118.884C122.967 118.264 122.006 118.158 121.405 117.393C120.313 116.003 120.877 113.975 122.391 113.173C122.882 112.912 122.885 112.123 122.391 111.862C121.733 111.516 121.056 111.1 120.616 110.487C120.201 109.907 120.116 109.273 120.283 108.58C120.292 108.541 120.31 108.501 120.322 108.462C120.262 108.644 120.322 108.468 120.34 108.426C120.404 108.298 120.471 108.174 120.544 108.049C120.711 107.764 120.865 107.548 121.047 107.345C121.153 107.226 121.266 107.111 121.387 107.008C121.502 106.911 121.335 107.029 121.469 106.95C121.526 106.914 121.584 106.877 121.648 106.85C121.526 106.905 121.663 106.871 121.702 106.844C121.675 106.847 121.645 106.85 121.617 106.856C121.69 106.856 121.693 106.856 121.63 106.847C121.608 106.844 121.599 106.835 121.596 106.835C121.642 106.862 121.633 106.853 121.575 106.808C121.611 106.838 121.645 106.874 121.675 106.911C121.951 107.214 122.467 107.19 122.749 106.911C123.061 106.598 123.013 106.152 122.749 105.836C122.151 105.12 122.242 104.027 122.521 103.153C122.852 102.127 123.492 101.34 124.441 100.833C125.597 100.217 126.931 100.029 128.175 99.6616C129.646 99.2305 131.087 98.6476 132.497 98.0557C134.168 97.3575 135.806 96.5925 137.411 95.7516C138.275 95.2993 137.511 93.9879 136.647 94.4402L136.65 94.4341Z" fill="#231F20"/>
<path d="M137.18 95.788C139.152 94.4128 140.756 92.5337 141.742 90.3359C141.909 89.9625 141.851 89.5193 141.469 89.2977C141.145 89.1095 140.602 89.1945 140.432 89.5709C139.54 91.5623 138.151 93.2684 136.413 94.4796C136.076 94.7133 135.922 95.1444 136.14 95.5178C136.334 95.8517 136.841 96.0248 137.177 95.791L137.18 95.788Z" fill="#231F20"/>
<path d="M122.127 107.278C128.184 108.495 134.626 107.339 139.916 104.154C141.412 103.253 142.813 102.187 144.081 100.988C144.79 100.314 143.717 99.2426 143.007 99.9135C138.827 103.869 133.143 106.128 127.402 106.243C125.767 106.276 124.132 106.14 122.53 105.815C122.13 105.733 121.711 105.93 121.596 106.346C121.493 106.72 121.724 107.199 122.127 107.281V107.278Z" fill="#231F20"/>
<path d="M122.297 113.146C128.46 113.358 134.884 113.547 140.693 111.127C142.191 110.502 143.617 109.734 144.924 108.765C145.252 108.523 145.418 108.107 145.197 107.727C145.009 107.402 144.49 107.208 144.16 107.454C139.431 110.96 133.441 111.734 127.711 111.75C125.906 111.753 124.102 111.692 122.3 111.628C121.323 111.595 121.326 113.113 122.3 113.146H122.297Z" fill="#231F20"/>
<path d="M122.946 119.967C128.49 120.24 134.105 119.321 139.27 117.284C140.753 116.698 142.203 116.03 143.611 115.271C144.469 114.807 143.705 113.498 142.846 113.96C138.133 116.5 132.876 118.03 127.532 118.404C126.006 118.51 124.475 118.522 122.946 118.449C121.969 118.401 121.972 119.919 122.946 119.967Z" fill="#231F20"/>
<path d="M235.59 111.668L225.135 122.132L220.664 117.657C220.036 117.029 219.017 117.029 218.389 117.657L213.928 122.123C213.3 122.751 213.3 123.771 213.928 124.399L223.888 134.369C224.577 135.058 225.693 135.058 226.382 134.369L242.33 118.407C242.958 117.779 242.958 116.759 242.33 116.13L237.868 111.665C237.24 111.036 236.221 111.036 235.593 111.665L235.59 111.668Z" fill="#EA5504"/>
<path d="M228.129 69.4836C199.511 69.4836 176.314 92.7006 176.314 121.342C176.314 149.984 199.511 173.201 228.129 173.201C256.746 173.201 279.944 149.984 279.944 121.342C279.944 92.7006 256.746 69.4836 228.129 69.4836ZM228.129 153.593C210.333 153.593 195.905 139.156 195.905 121.342C195.905 103.529 210.33 89.0911 228.129 89.0911C245.927 89.0911 260.353 103.529 260.353 121.342C260.353 139.156 245.927 153.593 228.129 153.593Z" fill="#EA5504"/>
<path d="M260.353 121.342H279.947C279.947 92.7006 256.749 69.4836 228.132 69.4836V89.0942C245.927 89.0942 260.356 103.532 260.356 121.345L260.353 121.342Z" fill="#FABE00"/>
<path d="M180.145 101.744L198.292 109.157C203.096 97.3878 214.64 89.0912 228.126 89.0912V69.4807C206.439 69.4807 187.867 82.8165 180.142 101.741L180.145 101.744Z" fill="#10002B"/>
<path d="M279.944 121.342H260.35C260.35 135.728 250.938 147.908 237.941 152.063L243.91 170.748C264.808 164.067 279.944 144.474 279.944 121.342Z" fill="#BEBCBA"/>
<path d="M279.258 122.101H261.093C260.674 122.101 260.334 121.761 260.334 121.342C260.334 120.923 260.674 120.583 261.093 120.583H279.258C279.677 120.583 280.016 120.923 280.016 121.342C280.016 121.761 279.677 122.101 279.258 122.101Z" fill="#231F20"/>
<path d="M197.612 109.612C197.512 109.612 197.412 109.594 197.315 109.552L180.648 102.427C180.263 102.263 180.084 101.817 180.248 101.431C180.412 101.046 180.857 100.867 181.243 101.03L197.91 108.155C198.295 108.319 198.474 108.765 198.31 109.151C198.186 109.439 197.907 109.612 197.612 109.612Z" fill="#231F20"/>
<path d="M242.915 171.131C242.582 171.131 242.275 170.909 242.184 170.572L237.313 152.637C237.204 152.234 237.44 151.815 237.847 151.705C238.247 151.596 238.669 151.833 238.778 152.24L243.649 170.174C243.758 170.578 243.522 170.997 243.115 171.106C243.049 171.125 242.982 171.134 242.915 171.134V171.131Z" fill="#231F20"/>
<path d="M68.8228 57.3957C75.9901 51.4488 80.555 42.4692 80.555 32.4241C80.555 14.5166 66.0506 0 48.1551 0C30.2597 0 15.7583 14.5166 15.7583 32.4241C15.7583 50.3316 30.2627 64.8483 48.1551 64.8483C52.2347 64.8483 56.1383 64.0924 59.7326 62.7142C70.5396 71.032 78.8413 68.7613 78.8413 68.7613C73.6607 65.0395 70.576 60.6742 68.8228 57.3926V57.3957Z" fill="#FABE00"/>
<path d="M37.7702 35.502C38.3111 33.194 36.8801 30.8841 34.5741 30.3428C32.268 29.8015 29.9601 31.2336 29.4192 33.5417C28.8783 35.8497 30.3093 38.1595 32.6153 38.7009C34.9214 39.2422 37.2293 37.8101 37.7702 35.502Z" fill="#10002B"/>
<path d="M51.1888 37.5618C52.8637 35.8855 52.8637 33.1677 51.1888 31.4914C49.5139 29.8151 46.7983 29.8151 45.1234 31.4914C43.4485 33.1677 43.4485 35.8855 45.1234 37.5618C46.7983 39.2381 49.5139 39.2381 51.1888 37.5618Z" fill="#10002B"/>
<path d="M65.3567 37.9076C67.224 36.4491 67.5563 33.7517 66.099 31.8828C64.6417 30.0139 61.9466 29.6813 60.0793 31.1398C58.212 32.5984 57.8796 35.2958 59.3369 37.1646C60.7943 39.0335 63.4894 39.3661 65.3567 37.9076Z" fill="#10002B"/>
</g>
<defs>
<clipPath id="clip0_122_4">
<rect width="267" height="200" fill="white" transform="translate(15)"/>
</clipPath>
</defs>
</svg>
