<svg width="250" height="200" viewBox="0 0 250 200" fill="none" xmlns="http://www.w3.org/2000/svg">
<mask id="path-1-outside-1_122_5" maskUnits="userSpaceOnUse" x="0" y="89" width="233" height="35" fill="black">
<rect fill="white" y="89" width="233" height="35"/>
<path d="M31.2116 102.455H22.5994C22.5384 101.742 22.3755 101.096 22.1108 100.515C21.8563 99.935 21.5 99.4362 21.0419 99.0188C20.594 98.5913 20.0494 98.2655 19.408 98.0415C18.7667 97.8074 18.0388 97.6903 17.2244 97.6903C15.7992 97.6903 14.5929 98.0365 13.6055 98.7287C12.6282 99.4209 11.8851 100.413 11.3761 101.706C10.8772 102.999 10.6278 104.552 10.6278 106.364C10.6278 108.277 10.8823 109.881 11.3913 111.174C11.9105 112.456 12.6587 113.423 13.636 114.075C14.6133 114.716 15.7891 115.037 17.1634 115.037C17.9472 115.037 18.6496 114.94 19.2706 114.747C19.8916 114.543 20.4311 114.253 20.8892 113.876C21.3473 113.5 21.7189 113.047 22.0039 112.517C22.2991 111.978 22.4976 111.372 22.5994 110.7L31.2116 110.761C31.1099 112.085 30.7383 113.434 30.0969 114.808C29.4556 116.172 28.5445 117.434 27.3636 118.595C26.1929 119.745 24.7423 120.672 23.0117 121.374C21.2811 122.076 19.2706 122.428 16.9801 122.428C14.1094 122.428 11.5339 121.812 9.25355 120.58C6.98343 119.348 5.18667 117.536 3.86328 115.144C2.55007 112.752 1.89347 109.825 1.89347 106.364C1.89347 102.882 2.56534 99.9503 3.90909 97.5682C5.25284 95.1759 7.06487 93.369 9.34517 92.1474C11.6255 90.9156 14.1705 90.2997 16.9801 90.2997C18.955 90.2997 20.7721 90.5695 22.4315 91.109C24.0908 91.6486 25.5465 92.4375 26.7987 93.4759C28.0508 94.504 29.0586 95.7714 29.8221 97.2781C30.5856 98.7847 31.0488 100.51 31.2116 102.455ZM36.7835 122V90.7273H50.2821C52.6031 90.7273 54.634 91.1497 56.3747 91.9947C58.1155 92.8396 59.4694 94.0561 60.4365 95.6442C61.4036 97.2322 61.8872 99.1359 61.8872 101.355C61.8872 103.595 61.3884 105.483 60.3907 107.02C59.4033 108.557 58.0137 109.718 56.222 110.502C54.4406 111.286 52.3588 111.678 49.9767 111.678H41.9142V105.081H48.2664C49.2641 105.081 50.1141 104.959 50.8165 104.714C51.5291 104.46 52.0737 104.058 52.4504 103.508C52.8372 102.958 53.0306 102.241 53.0306 101.355C53.0306 100.459 52.8372 99.7314 52.4504 99.1715C52.0737 98.6014 51.5291 98.1841 50.8165 97.9194C50.1141 97.6445 49.2641 97.5071 48.2664 97.5071H45.2735V122H36.7835ZM55.1073 107.646L62.9255 122H53.7025L46.0676 107.646H55.1073ZM67.2261 122V90.7273H89.7645V97.5682H75.7162V102.943H88.604V109.784H75.7162V115.159H89.7034V122H67.2261ZM103.819 122H94.6568L104.979 90.7273H116.584L126.907 122H117.745L110.904 99.3395H110.66L103.819 122ZM102.109 109.662H119.333V116.014H102.109V109.662ZM126.836 97.5682V90.7273H154.017V97.5682H144.611V122H136.243V97.5682H126.836ZM167.422 90.7273V122H158.932V90.7273H167.422ZM181.717 90.7273L188.13 112.777H188.375L194.788 90.7273H204.377L194.055 122H182.45L172.127 90.7273H181.717ZM209.109 122V90.7273H231.648V97.5682H217.599V102.943H230.487V109.784H217.599V115.159H231.587V122H209.109Z"/>
</mask>
<path d="M31.2116 102.455V103.455H32.2989L32.2082 102.371L31.2116 102.455ZM22.5994 102.455L21.6031 102.54L21.6815 103.455H22.5994V102.455ZM22.1108 100.515L21.195 100.917L21.1979 100.924L21.201 100.93L22.1108 100.515ZM21.0419 99.0188L20.3514 99.7422L20.3598 99.7502L20.3684 99.758L21.0419 99.0188ZM19.408 98.0415L19.0651 98.981L19.0783 98.9856L19.408 98.0415ZM13.6055 98.7287L13.0314 97.9098L13.0275 97.9127L13.6055 98.7287ZM11.3761 101.706L10.4456 101.34L10.4431 101.346L11.3761 101.706ZM11.3913 111.174L10.4608 111.54L10.4644 111.549L11.3913 111.174ZM13.636 114.075L13.0813 114.907L13.0874 114.911L13.636 114.075ZM19.2706 114.747L19.568 115.702L19.5751 115.699L19.5821 115.697L19.2706 114.747ZM20.8892 113.876L21.5243 114.649L20.8892 113.876ZM22.0039 112.517L21.1266 112.037L21.1234 112.043L22.0039 112.517ZM22.5994 110.7L22.6065 109.7L21.7405 109.694L21.6107 110.55L22.5994 110.7ZM31.2116 110.761L32.2087 110.838L32.2909 109.769L31.2187 109.761L31.2116 110.761ZM30.0969 114.808L31.0019 115.233L31.0031 115.231L30.0969 114.808ZM27.3636 118.595L28.0645 119.308L28.0646 119.308L27.3636 118.595ZM23.0117 121.374L22.6356 120.447L23.0117 121.374ZM9.25355 120.58L8.77663 121.459L8.77828 121.46L9.25355 120.58ZM3.86328 115.144L2.98667 115.625L2.98825 115.628L3.86328 115.144ZM3.90909 97.5682L4.78007 98.0595L4.78096 98.0579L3.90909 97.5682ZM9.34517 92.1474L9.81739 93.0289L9.82044 93.0272L9.34517 92.1474ZM22.4315 91.109L22.7407 90.158H22.7407L22.4315 91.109ZM26.7987 93.4759L26.1603 94.2456L26.164 94.2487L26.7987 93.4759ZM29.8221 97.2781L28.9301 97.7301H28.9301L29.8221 97.2781ZM31.2116 102.455V101.455H22.5994V102.455V103.455H31.2116V102.455ZM22.5994 102.455L23.5958 102.369C23.5261 101.556 23.3382 100.796 23.0206 100.1L22.1108 100.515L21.201 100.93C21.4128 101.395 21.5506 101.928 21.6031 102.54L22.5994 102.455ZM22.1108 100.515L23.0266 100.114C22.7171 99.4081 22.2794 98.7935 21.7154 98.2796L21.0419 99.0188L20.3684 99.758C20.7206 100.079 20.9955 100.462 21.195 100.917L22.1108 100.515ZM21.0419 99.0188L21.7324 98.2955C21.1717 97.7602 20.5005 97.3638 19.7377 97.0975L19.408 98.0415L19.0783 98.9856C19.5982 99.1672 20.0163 99.4223 20.3514 99.7422L21.0419 99.0188ZM19.408 98.0415L19.751 97.1022C18.9808 96.821 18.1338 96.6903 17.2244 96.6903V97.6903V98.6903C17.9438 98.6903 18.5525 98.7938 19.0651 98.9809L19.408 98.0415ZM17.2244 97.6903V96.6903C15.6321 96.6903 14.2159 97.0795 13.0314 97.9099L13.6055 98.7287L14.1795 99.5475C14.9699 98.9934 15.9664 98.6903 17.2244 98.6903V97.6903ZM13.6055 98.7287L13.0275 97.9127C11.8673 98.7344 11.0142 99.8958 10.4456 101.34L11.3761 101.706L12.3065 102.073C12.756 100.931 13.3891 100.107 14.1835 99.5447L13.6055 98.7287ZM11.3761 101.706L10.4431 101.346C9.88867 102.783 9.62784 104.464 9.62784 106.364H10.6278H11.6278C11.6278 104.639 11.8658 103.215 12.309 102.066L11.3761 101.706ZM10.6278 106.364H9.62784C9.62784 108.359 9.89214 110.095 10.4609 111.54L11.3913 111.174L12.3218 110.807C11.8725 109.666 11.6278 108.196 11.6278 106.364H10.6278ZM11.3913 111.174L10.4644 111.549C11.0452 112.984 11.9088 114.125 13.0813 114.907L13.636 114.075L14.1907 113.243C13.4087 112.722 12.7758 111.929 12.3183 110.798L11.3913 111.174ZM13.636 114.075L13.0874 114.911C14.2546 115.677 15.629 116.037 17.1634 116.037V115.037V114.037C15.9491 114.037 14.972 113.756 14.1847 113.239L13.636 114.075ZM17.1634 115.037V116.037C18.0281 116.037 18.8333 115.93 19.568 115.702L19.2706 114.747L18.9732 113.792C18.4659 113.95 17.8663 114.037 17.1634 114.037V115.037ZM19.2706 114.747L19.5821 115.697C20.3091 115.459 20.961 115.112 21.5243 114.649L20.8892 113.876L20.2541 113.104C19.9012 113.394 19.4741 113.628 18.959 113.797L19.2706 114.747ZM20.8892 113.876L21.5243 114.649C22.0842 114.188 22.5386 113.634 22.8844 112.992L22.0039 112.517L21.1234 112.043C20.8992 112.46 20.6104 112.811 20.2541 113.104L20.8892 113.876ZM22.0039 112.517L22.8812 112.997C23.2382 112.345 23.4706 111.626 23.5881 110.85L22.5994 110.7L21.6107 110.55C21.5246 111.119 21.3601 111.611 21.1266 112.037L22.0039 112.517ZM22.5994 110.7L22.5923 111.7L31.2046 111.761L31.2116 110.761L31.2187 109.761L22.6065 109.7L22.5994 110.7ZM31.2116 110.761L30.2146 110.685C30.1232 111.872 29.7884 113.104 29.1908 114.385L30.0969 114.808L31.0031 115.231C31.6882 113.763 32.0965 112.297 32.2087 110.838L31.2116 110.761ZM30.0969 114.808L29.192 114.382C28.6058 115.629 27.7674 116.796 26.6627 117.882L27.3636 118.595L28.0646 119.308C29.3217 118.073 30.3054 116.715 31.0019 115.233L30.0969 114.808ZM27.3636 118.595L26.6628 117.882C25.5973 118.928 24.2617 119.787 22.6356 120.447L23.0117 121.374L23.3878 122.301C25.2229 121.556 26.7886 120.562 28.0645 119.308L27.3636 118.595ZM23.0117 121.374L22.6356 120.447C21.0482 121.092 19.17 121.428 16.9801 121.428V122.428V123.428C19.3712 123.428 21.5141 123.061 23.3878 122.301L23.0117 121.374ZM16.9801 122.428V121.428C14.2571 121.428 11.8479 120.845 9.72882 119.7L9.25355 120.58L8.77828 121.46C11.2198 122.779 13.9616 123.428 16.9801 123.428V122.428ZM9.25355 120.58L9.73047 119.701C7.63799 118.566 5.97504 116.895 4.73832 114.66L3.86328 115.144L2.98825 115.628C4.3983 118.177 6.32887 120.131 8.77663 121.459L9.25355 120.58ZM3.86328 115.144L4.73989 114.663C3.52652 112.452 2.89347 109.701 2.89347 106.364H1.89347H0.893466C0.893466 109.949 1.57362 113.051 2.98667 115.625L3.86328 115.144ZM1.89347 106.364H2.89347C2.89347 103.008 3.54097 100.256 4.78007 98.0595L3.90909 97.5682L3.03811 97.0769C1.58971 99.6445 0.893466 102.756 0.893466 106.364H1.89347ZM3.90909 97.5682L4.78096 98.0579C6.03742 95.821 7.71522 94.155 9.81739 93.0289L9.34517 92.1474L8.87295 91.2659C6.41451 92.5829 4.46827 94.5308 3.03722 97.0784L3.90909 97.5682ZM9.34517 92.1474L9.82044 93.0272C11.9426 91.8808 14.3221 91.2997 16.9801 91.2997V90.2997V89.2997C14.0188 89.2997 11.3083 89.9504 8.8699 91.2675L9.34517 92.1474ZM16.9801 90.2997V91.2997C18.8637 91.2997 20.575 91.5569 22.1222 92.06L22.4315 91.109L22.7407 90.158C20.9693 89.5821 19.0464 89.2997 16.9801 89.2997V90.2997ZM22.4315 91.109L22.1222 92.06C23.6702 92.5633 25.0123 93.2936 26.1603 94.2456L26.7987 93.4759L27.437 92.7061C26.0807 91.5814 24.5114 90.7338 22.7407 90.158L22.4315 91.109ZM26.7987 93.4759L26.164 94.2487C27.3045 95.1852 28.2265 96.3417 28.9301 97.7301L29.8221 97.2781L30.7141 96.826C29.8907 95.2011 28.797 93.8229 27.4333 92.703L26.7987 93.4759ZM29.8221 97.2781L28.9301 97.7301C29.627 99.1053 30.0614 100.702 30.2151 102.538L31.2116 102.455L32.2082 102.371C32.0362 100.318 31.5442 98.464 30.7141 96.826L29.8221 97.2781ZM36.7835 122H35.7835V123H36.7835V122ZM36.7835 90.7273V89.7273H35.7835V90.7273H36.7835ZM56.3747 91.9947L55.9381 92.8943L56.3747 91.9947ZM60.4365 95.6442L61.2906 95.1241L60.4365 95.6442ZM60.3907 107.02L59.5519 106.476L59.5494 106.48L60.3907 107.02ZM56.222 110.502L55.8212 109.586L55.8193 109.586L56.222 110.502ZM41.9142 111.678H40.9142V112.678H41.9142V111.678ZM41.9142 105.081V104.081H40.9142V105.081H41.9142ZM50.8165 104.714L51.145 105.659L51.1528 105.656L50.8165 104.714ZM52.4504 103.508L51.6325 102.933L51.6255 102.943L52.4504 103.508ZM52.4504 99.1715L51.616 99.7228L51.6218 99.7314L51.6277 99.74L52.4504 99.1715ZM50.8165 97.9194L50.4521 98.8506L50.4602 98.8538L50.4683 98.8568L50.8165 97.9194ZM45.2735 97.5071V96.5071H44.2735V97.5071H45.2735ZM45.2735 122V123H46.2735V122H45.2735ZM55.1073 107.646L55.9855 107.168L55.7014 106.646H55.1073V107.646ZM62.9255 122V123H64.6089L63.8037 121.522L62.9255 122ZM53.7025 122L52.8196 122.47L53.1018 123H53.7025V122ZM46.0676 107.646V106.646H44.403L45.1847 108.116L46.0676 107.646ZM36.7835 122H37.7835V90.7273H36.7835H35.7835V122H36.7835ZM36.7835 90.7273V91.7273H50.2821V90.7273V89.7273H36.7835V90.7273ZM50.2821 90.7273V91.7273C52.4816 91.7273 54.3579 92.1273 55.9381 92.8943L56.3747 91.9947L56.8114 91.095C54.9101 90.1722 52.7245 89.7273 50.2821 89.7273V90.7273ZM56.3747 91.9947L55.9381 92.8943C57.5136 93.659 58.7194 94.7471 59.5824 96.1643L60.4365 95.6442L61.2906 95.1241C60.2195 93.3652 58.7175 92.0202 56.8114 91.095L56.3747 91.9947ZM60.4365 95.6442L59.5824 96.1643C60.4371 97.5677 60.8872 99.2836 60.8872 101.355H61.8872H62.8872C62.8872 98.9882 62.3702 96.8968 61.2906 95.1241L60.4365 95.6442ZM61.8872 101.355H60.8872C60.8872 103.445 60.4231 105.134 59.5519 106.476L60.3907 107.02L61.2295 107.565C62.3536 105.833 62.8872 103.745 62.8872 101.355H61.8872ZM60.3907 107.02L59.5494 106.48C58.6761 107.839 57.4456 108.875 55.8212 109.586L56.222 110.502L56.6229 111.418C58.5819 110.561 60.1304 109.276 61.2321 107.561L60.3907 107.02ZM56.222 110.502L55.8193 109.586C54.1898 110.303 52.2504 110.678 49.9767 110.678V111.678V112.678C52.4671 112.678 54.6913 112.268 56.6248 111.417L56.222 110.502ZM49.9767 111.678V110.678H41.9142V111.678V112.678H49.9767V111.678ZM41.9142 111.678H42.9142V105.081H41.9142H40.9142V111.678H41.9142ZM41.9142 105.081V106.081H48.2664V105.081V104.081H41.9142V105.081ZM48.2664 105.081V106.081C49.3402 106.081 50.3078 105.95 51.145 105.659L50.8165 104.714L50.488 103.77C49.9204 103.967 49.188 104.081 48.2664 104.081V105.081ZM50.8165 104.714L51.1528 105.656C52.0359 105.341 52.7638 104.82 53.2753 104.073L52.4504 103.508L51.6255 102.943C51.3837 103.296 51.0223 103.579 50.4802 103.773L50.8165 104.714ZM52.4504 103.508L53.2682 104.084C53.8061 103.319 54.0306 102.382 54.0306 101.355H53.0306H52.0306C52.0306 102.1 51.8684 102.598 51.6326 102.933L52.4504 103.508ZM53.0306 101.355H54.0306C54.0306 100.32 53.8069 99.3756 53.2731 98.6031L52.4504 99.1715L51.6277 99.74C51.8676 100.087 52.0306 100.599 52.0306 101.355H53.0306ZM52.4504 99.1715L53.2847 98.6203C52.778 97.8533 52.0527 97.3118 51.1647 96.982L50.8165 97.9194L50.4683 98.8568C51.0055 99.0563 51.3695 99.3496 51.616 99.7228L52.4504 99.1715ZM50.8165 97.9194L51.1809 96.9881C50.3316 96.6558 49.3507 96.5071 48.2664 96.5071V97.5071V98.5071C49.1774 98.5071 49.8966 98.6333 50.4521 98.8506L50.8165 97.9194ZM48.2664 97.5071V96.5071H45.2735V97.5071V98.5071H48.2664V97.5071ZM45.2735 97.5071H44.2735V122H45.2735H46.2735V97.5071H45.2735ZM45.2735 122V121H36.7835V122V123H45.2735V122ZM55.1073 107.646L54.2292 108.125L62.0473 122.478L62.9255 122L63.8037 121.522L55.9855 107.168L55.1073 107.646ZM62.9255 122V121H53.7025V122V123H62.9255V122ZM53.7025 122L54.5854 121.53L46.9504 107.177L46.0676 107.646L45.1847 108.116L52.8196 122.47L53.7025 122ZM46.0676 107.646V108.646H55.1073V107.646V106.646H46.0676V107.646ZM67.2261 122H66.2261V123H67.2261V122ZM67.2261 90.7273V89.7273H66.2261V90.7273H67.2261ZM89.7645 90.7273H90.7645V89.7273H89.7645V90.7273ZM89.7645 97.5682V98.5682H90.7645V97.5682H89.7645ZM75.7162 97.5682V96.5682H74.7162V97.5682H75.7162ZM75.7162 102.943H74.7162V103.943H75.7162V102.943ZM88.604 102.943H89.604V101.943H88.604V102.943ZM88.604 109.784V110.784H89.604V109.784H88.604ZM75.7162 109.784V108.784H74.7162V109.784H75.7162ZM75.7162 115.159H74.7162V116.159H75.7162V115.159ZM89.7034 115.159H90.7034V114.159H89.7034V115.159ZM89.7034 122V123H90.7034V122H89.7034ZM67.2261 122H68.2261V90.7273H67.2261H66.2261V122H67.2261ZM67.2261 90.7273V91.7273H89.7645V90.7273V89.7273H67.2261V90.7273ZM89.7645 90.7273H88.7645V97.5682H89.7645H90.7645V90.7273H89.7645ZM89.7645 97.5682V96.5682H75.7162V97.5682V98.5682H89.7645V97.5682ZM75.7162 97.5682H74.7162V102.943H75.7162H76.7162V97.5682H75.7162ZM75.7162 102.943V103.943H88.604V102.943V101.943H75.7162V102.943ZM88.604 102.943H87.604V109.784H88.604H89.604V102.943H88.604ZM88.604 109.784V108.784H75.7162V109.784V110.784H88.604V109.784ZM75.7162 109.784H74.7162V115.159H75.7162H76.7162V109.784H75.7162ZM75.7162 115.159V116.159H89.7034V115.159V114.159H75.7162V115.159ZM89.7034 115.159H88.7034V122H89.7034H90.7034V115.159H89.7034ZM89.7034 122V121H67.2261V122V123H89.7034V122ZM103.819 122V123H104.561L104.776 122.289L103.819 122ZM94.6568 122L93.7072 121.687L93.2737 123H94.6568V122ZM104.979 90.7273V89.7273H104.256L104.03 90.4138L104.979 90.7273ZM116.584 90.7273L117.534 90.4138L117.307 89.7273H116.584V90.7273ZM126.907 122V123H128.29L127.856 121.687L126.907 122ZM117.745 122L116.788 122.289L117.002 123H117.745V122ZM110.904 99.3395L111.861 99.0505L111.647 98.3395H110.904V99.3395ZM110.66 99.3395V98.3395H109.917L109.702 99.0505L110.66 99.3395ZM102.109 109.662V108.662H101.109V109.662H102.109ZM119.333 109.662H120.333V108.662H119.333V109.662ZM119.333 116.014V117.014H120.333V116.014H119.333ZM102.109 116.014H101.109V117.014H102.109V116.014ZM103.819 122V121H94.6568V122V123H103.819V122ZM94.6568 122L95.6064 122.313L105.929 91.0407L104.979 90.7273L104.03 90.4138L93.7072 121.687L94.6568 122ZM104.979 90.7273V91.7273H116.584V90.7273V89.7273H104.979V90.7273ZM116.584 90.7273L115.635 91.0407L125.957 122.313L126.907 122L127.856 121.687L117.534 90.4138L116.584 90.7273ZM126.907 122V121H117.745V122V123H126.907V122ZM117.745 122L118.702 121.711L111.861 99.0505L110.904 99.3395L109.947 99.6285L116.788 122.289L117.745 122ZM110.904 99.3395V98.3395H110.66V99.3395V100.339H110.904V99.3395ZM110.66 99.3395L109.702 99.0505L102.861 121.711L103.819 122L104.776 122.289L111.617 99.6285L110.66 99.3395ZM102.109 109.662V110.662H119.333V109.662V108.662H102.109V109.662ZM119.333 109.662H118.333V116.014H119.333H120.333V109.662H119.333ZM119.333 116.014V115.014H102.109V116.014V117.014H119.333V116.014ZM102.109 116.014H103.109V109.662H102.109H101.109V116.014H102.109ZM126.836 97.5682H125.836V98.5682H126.836V97.5682ZM126.836 90.7273V89.7273H125.836V90.7273H126.836ZM154.017 90.7273H155.017V89.7273H154.017V90.7273ZM154.017 97.5682V98.5682H155.017V97.5682H154.017ZM144.611 97.5682V96.5682H143.611V97.5682H144.611ZM144.611 122V123H145.611V122H144.611ZM136.243 122H135.243V123H136.243V122ZM136.243 97.5682H137.243V96.5682H136.243V97.5682ZM126.836 97.5682H127.836V90.7273H126.836H125.836V97.5682H126.836ZM126.836 90.7273V91.7273H154.017V90.7273V89.7273H126.836V90.7273ZM154.017 90.7273H153.017V97.5682H154.017H155.017V90.7273H154.017ZM154.017 97.5682V96.5682H144.611V97.5682V98.5682H154.017V97.5682ZM144.611 97.5682H143.611V122H144.611H145.611V97.5682H144.611ZM144.611 122V121H136.243V122V123H144.611V122ZM136.243 122H137.243V97.5682H136.243H135.243V122H136.243ZM136.243 97.5682V96.5682H126.836V97.5682V98.5682H136.243V97.5682ZM167.422 90.7273H168.422V89.7273H167.422V90.7273ZM167.422 122V123H168.422V122H167.422ZM158.932 122H157.932V123H158.932V122ZM158.932 90.7273V89.7273H157.932V90.7273H158.932ZM167.422 90.7273H166.422V122H167.422H168.422V90.7273H167.422ZM167.422 122V121H158.932V122V123H167.422V122ZM158.932 122H159.932V90.7273H158.932H157.932V122H158.932ZM158.932 90.7273V91.7273H167.422V90.7273V89.7273H158.932V90.7273ZM181.717 90.7273L182.677 90.448L182.467 89.7273H181.717V90.7273ZM188.13 112.777L187.17 113.056L187.38 113.777H188.13V112.777ZM188.375 112.777V113.777H189.125L189.335 113.056L188.375 112.777ZM194.788 90.7273V89.7273H194.037L193.828 90.448L194.788 90.7273ZM204.377 90.7273L205.327 91.0407L205.76 89.7273H204.377V90.7273ZM194.055 122V123H194.778L195.005 122.313L194.055 122ZM182.45 122L181.5 122.313L181.727 123H182.45V122ZM172.127 90.7273V89.7273H170.744L171.178 91.0407L172.127 90.7273ZM181.717 90.7273L180.757 91.0066L187.17 113.056L188.13 112.777L189.09 112.498L182.677 90.448L181.717 90.7273ZM188.13 112.777V113.777H188.375V112.777V111.777H188.13V112.777ZM188.375 112.777L189.335 113.056L195.748 91.0066L194.788 90.7273L193.828 90.448L187.414 112.498L188.375 112.777ZM194.788 90.7273V91.7273H204.377V90.7273V89.7273H194.788V90.7273ZM204.377 90.7273L203.428 90.4138L193.105 121.687L194.055 122L195.005 122.313L205.327 91.0407L204.377 90.7273ZM194.055 122V121H182.45V122V123H194.055V122ZM182.45 122L183.399 121.687L173.077 90.4138L172.127 90.7273L171.178 91.0407L181.5 122.313L182.45 122ZM172.127 90.7273V91.7273H181.717V90.7273V89.7273H172.127V90.7273ZM209.109 122H208.109V123H209.109V122ZM209.109 90.7273V89.7273H208.109V90.7273H209.109ZM231.648 90.7273H232.648V89.7273H231.648V90.7273ZM231.648 97.5682V98.5682H232.648V97.5682H231.648ZM217.599 97.5682V96.5682H216.599V97.5682H217.599ZM217.599 102.943H216.599V103.943H217.599V102.943ZM230.487 102.943H231.487V101.943H230.487V102.943ZM230.487 109.784V110.784H231.487V109.784H230.487ZM217.599 109.784V108.784H216.599V109.784H217.599ZM217.599 115.159H216.599V116.159H217.599V115.159ZM231.587 115.159H232.587V114.159H231.587V115.159ZM231.587 122V123H232.587V122H231.587ZM209.109 122H210.109V90.7273H209.109H208.109V122H209.109ZM209.109 90.7273V91.7273H231.648V90.7273V89.7273H209.109V90.7273ZM231.648 90.7273H230.648V97.5682H231.648H232.648V90.7273H231.648ZM231.648 97.5682V96.5682H217.599V97.5682V98.5682H231.648V97.5682ZM217.599 97.5682H216.599V102.943H217.599H218.599V97.5682H217.599ZM217.599 102.943V103.943H230.487V102.943V101.943H217.599V102.943ZM230.487 102.943H229.487V109.784H230.487H231.487V102.943H230.487ZM230.487 109.784V108.784H217.599V109.784V110.784H230.487V109.784ZM217.599 109.784H216.599V115.159H217.599H218.599V109.784H217.599ZM217.599 115.159V116.159H231.587V115.159V114.159H217.599V115.159ZM231.587 115.159H230.587V122H231.587H232.587V115.159H231.587ZM231.587 122V121H209.109V122V123H231.587V122Z" fill="black" mask="url(#path-1-outside-1_122_5)"/>
<path d="M197.991 116.66C198.196 115.354 198.401 113.994 198.002 112.732C197.596 111.451 196.622 110.445 195.68 109.49C191.144 104.893 186.607 100.294 182.073 95.6966C181.173 94.786 180.198 93.549 180.672 92.3586C180.984 91.5742 181.863 91.1381 182.706 91.1024C183.549 91.0668 184.365 91.363 185.151 91.6675C191.267 94.029 197.043 99.106 203.693 95.5129C206.327 94.0894 208.463 91.9171 210.653 89.8737C214.379 86.3958 218.376 83.2114 222.598 80.3616C223.712 79.6101 224.897 78.8585 226.233 78.7324C227.214 78.6391 228.196 78.9737 228.9 79.6677C229.678 80.4357 230.08 80.6825 231.137 80.0818C232.191 79.4812 233.431 79.1438 234.625 79.3495C235.364 79.4757 236.076 79.8322 236.604 80.3698C237.286 81.0638 237.346 81.7001 238.51 81.4505C238.926 81.3627 239.347 81.2228 239.766 81.2996C240.3 81.3984 240.716 81.8372 240.957 82.3255C241.559 83.5405 241.19 85.1588 240.117 85.9898C239.651 86.3519 237.883 86.788 238.228 87.6465C238.375 88.014 238.86 88.0607 239.216 88.2307C239.709 88.4666 240.004 89.0206 240.024 89.5665C240.043 90.115 239.821 90.6471 239.506 91.0942C238.203 92.9264 236.133 94.2978 234.474 95.7954C232.623 97.4658 230.819 99.1992 229.155 101.059C226.28 104.271 223.8 107.899 222.351 111.964C221.007 115.741 220.588 119.778 220.358 123.783C220.147 127.48 220.079 131.208 219.375 134.856C219.047 136.562 218.653 138.561 217.779 140.086C217.015 141.422 215.562 142.448 214.165 143.024C212.87 143.559 211.48 143.805 210.089 143.965C207.25 144.288 204.326 144.242 201.596 143.397C199.647 142.793 197.802 141.757 196.362 140.297C194.867 138.783 194.642 137.826 194.968 135.772C195.768 130.717 196.567 125.665 197.367 120.61C197.575 119.296 197.783 117.982 197.991 116.668V116.66Z" fill="white"/>
<path d="M198.65 116.841C198.946 114.968 199.141 113.083 198.136 111.377C197.709 110.65 197.139 110.011 196.556 109.405C195.874 108.698 195.176 108.004 194.486 107.304C191.628 104.405 188.767 101.509 185.909 98.6095C185.205 97.8963 184.504 97.186 183.801 96.4728C183.152 95.8146 182.437 95.1837 181.871 94.4486C181.487 93.9494 181.025 93.2171 181.32 92.5698C181.597 91.9664 182.35 91.7634 182.955 91.7854C183.82 91.8155 184.674 92.1995 185.463 92.5232C186.177 92.8167 186.878 93.1458 187.573 93.4832C189.049 94.1963 190.5 94.9643 191.995 95.639C194.891 96.9446 198.021 97.9018 201.205 97.1832C204.693 96.3988 207.469 93.8041 209.996 91.4233C212.714 88.8615 215.515 86.4012 218.488 84.1384C220.005 82.9864 221.552 81.8701 223.134 80.8141C224.402 79.9666 226.069 78.9216 227.635 79.6155C228.322 79.92 228.719 80.6002 229.393 80.9156C230.165 81.2777 230.877 80.9869 231.578 80.6084C232.908 79.8898 234.734 79.5991 235.958 80.6989C236.426 81.1186 236.711 81.7412 237.297 82.021C237.606 82.1691 237.946 82.2047 238.285 82.1691C238.72 82.1225 239.238 81.8674 239.676 81.9771C240.245 82.1225 240.514 82.8877 240.549 83.4061C240.593 84.0397 240.399 84.7007 239.972 85.1807C239.785 85.3919 239.736 85.4303 239.512 85.5455C239.271 85.6717 239.019 85.7759 238.775 85.8966C238.271 86.1489 237.716 86.5055 237.546 87.0787C237.302 87.8988 237.921 88.4721 238.622 88.7299C238.882 88.8259 239.093 88.8972 239.227 89.1632C239.388 89.4869 239.356 89.8489 239.227 90.1808C238.95 90.8967 238.31 91.5138 237.776 92.0405C237.179 92.6302 236.536 93.1732 235.887 93.7053C234.482 94.8628 233.124 96.0614 231.813 97.3258C229.177 99.8629 226.713 102.608 224.719 105.689C222.737 108.758 221.338 112.126 220.607 115.711C219.835 119.499 219.698 123.366 219.493 127.214C219.389 129.178 219.263 131.15 218.978 133.098C218.724 134.823 218.409 136.589 217.848 138.24C217.596 138.975 217.275 139.724 216.78 140.33C216.273 140.947 215.644 141.449 214.959 141.853C213.445 142.747 211.688 143.092 209.96 143.282C206.346 143.677 202.508 143.479 199.28 141.65C198.555 141.238 197.87 140.758 197.254 140.196C196.739 139.724 196.228 139.211 195.88 138.6C195.62 138.142 195.518 137.656 195.521 137.124C195.521 136.274 195.707 135.426 195.839 134.592C196.474 130.577 197.109 126.561 197.744 122.543C198.045 120.642 198.347 118.742 198.648 116.841C198.705 116.476 198.555 116.103 198.169 115.996C197.843 115.906 197.386 116.106 197.325 116.476C196.674 120.588 196.025 124.699 195.373 128.811C195.045 130.887 194.716 132.963 194.388 135.037C194.158 136.49 193.933 137.947 194.694 139.291C195.502 140.72 196.953 141.864 198.338 142.692C199.924 143.638 201.703 144.242 203.518 144.543C205.457 144.867 207.428 144.889 209.382 144.711C211.299 144.535 213.235 144.236 214.984 143.391C216.517 142.648 217.875 141.482 218.622 139.93C219.403 138.312 219.753 136.521 220.079 134.765C220.81 130.799 220.832 126.759 221.1 122.749C221.357 118.882 221.867 114.987 223.296 111.358C224.599 108.045 226.622 105.033 228.927 102.337C231.4 99.446 234.198 96.876 237.116 94.4514C237.759 93.9165 238.397 93.368 238.978 92.7645C239.596 92.12 240.243 91.3959 240.544 90.5401C240.842 89.6871 240.713 88.6833 240.076 88.0167C239.791 87.7205 239.443 87.5669 239.065 87.4325C239.085 87.438 238.863 87.3694 238.904 87.3749C238.879 87.3612 238.855 87.3475 238.83 87.3365C238.838 87.3448 238.844 87.3557 238.846 87.3667C238.885 87.353 238.805 87.5258 238.846 87.342C238.865 87.3914 238.865 87.4435 238.846 87.4929C238.868 87.4188 238.865 87.4243 238.833 87.5093C238.841 87.4929 238.852 87.4792 238.86 87.4627C238.808 87.5258 238.808 87.5258 238.86 87.4655C238.896 87.4271 238.934 87.3941 238.972 87.3585C239.063 87.2817 238.841 87.4408 239.022 87.3283C239.082 87.2899 239.139 87.2542 239.202 87.2186C239.451 87.076 239.714 86.9608 239.972 86.8401C240.568 86.5576 241.034 86.1297 241.376 85.5592C242.178 84.2289 242.134 82.2185 240.905 81.1433C240.588 80.8663 240.226 80.6797 239.81 80.6167C239.246 80.5316 238.75 80.7373 238.203 80.8059C238.055 80.8251 237.948 80.8169 237.883 80.7922C238 80.8361 237.825 80.7565 237.811 80.7456C237.836 80.7648 237.896 80.8196 237.8 80.7291C237.576 80.5152 237.412 80.2464 237.206 80.016C235.966 78.6226 233.962 78.3264 232.237 78.8503C231.808 78.9819 231.383 79.1602 230.986 79.3687C230.688 79.525 230.354 79.7499 230.077 79.7225C230.19 79.7335 230.044 79.7115 230.017 79.7006C229.897 79.6457 230.151 79.7856 229.949 79.6649C229.817 79.5881 229.721 79.5058 229.604 79.3989C229.267 79.0889 228.947 78.7762 228.544 78.5513C226.882 77.6188 225.012 78.1042 223.452 78.9984C221.796 79.9474 220.24 81.1323 218.71 82.2706C217.13 83.4445 215.581 84.6623 214.072 85.9267C212.586 87.172 211.137 88.4666 209.722 89.7968C208.427 91.0174 207.146 92.2654 205.733 93.3515C204.329 94.4322 202.779 95.3812 201.046 95.8118C199.548 96.1848 197.985 96.13 196.488 95.7899C193.315 95.0685 190.489 93.3378 187.568 91.9719C186.79 91.6098 186.005 91.2642 185.203 90.9598C184.313 90.6197 183.365 90.3235 182.402 90.4441C181.556 90.5484 180.74 90.9516 180.253 91.6729C179.73 92.4464 179.779 93.4036 180.14 94.2292C180.505 95.0603 181.142 95.7378 181.769 96.3741C182.473 97.0872 183.174 97.7976 183.877 98.5107C185.348 100 186.815 101.489 188.285 102.979C189.755 104.468 191.223 105.957 192.693 107.447C193.427 108.193 194.163 108.936 194.897 109.682C195.502 110.294 196.14 110.9 196.641 111.602C197.112 112.266 197.446 112.993 197.514 113.813C197.588 114.704 197.46 115.593 197.32 116.473C197.262 116.838 197.413 117.211 197.799 117.318C198.125 117.409 198.582 117.208 198.642 116.838L198.65 116.841Z" fill="#231F20"/>
<path d="M229.059 80.2106C225.76 81.7301 222.811 84.0039 220.495 86.8043C220.26 87.0895 220.216 87.4954 220.495 87.7752C220.739 88.0193 221.226 88.0632 221.464 87.7752C223.715 85.0489 226.543 82.8738 229.752 81.3955C230.088 81.2419 230.17 80.7536 229.998 80.4574C229.795 80.1118 229.398 80.057 229.062 80.2106H229.059Z" fill="#231F20"/>
<path d="M237.007 81.1102C233.27 82.616 229.828 84.7746 226.861 87.5065C226.034 88.269 225.248 89.0726 224.506 89.9174C223.926 90.5757 224.889 91.5494 225.475 90.8883C228.013 88.0111 231.047 85.6112 234.43 83.8092C235.386 83.3017 236.369 82.8382 237.374 82.435C237.716 82.2979 237.957 81.977 237.853 81.5902C237.762 81.2638 237.354 80.9731 237.009 81.1102H237.007Z" fill="#231F20"/>
<path d="M237.861 87.1637C234.165 88.8423 230.734 91.0667 227.676 93.7382C227.397 93.9823 227.427 94.4595 227.676 94.7091C227.953 94.9862 228.364 94.9532 228.646 94.7091C231.616 92.1144 234.964 89.9778 238.551 88.3486C238.887 88.195 238.97 87.7068 238.797 87.4105C238.595 87.0649 238.198 87.0101 237.861 87.1637Z" fill="#231F20"/>
<path d="M216.413 90.8938C219.876 92.822 222.691 95.765 224.481 99.306C224.878 100.093 226.061 99.3992 225.664 98.6148C223.775 94.8791 220.755 91.7468 217.103 89.7116C216.334 89.281 215.641 90.4659 216.413 90.8965V90.8938Z" fill="#231F20"/>
<path d="M197.692 97.2352C199.135 97.4547 200.564 97.3175 202.015 97.2901C203.14 97.2681 204.351 97.3257 205.374 97.8469C207.288 98.8206 207.836 101.103 207.767 103.091C207.737 103.974 209.106 103.972 209.136 103.091C209.202 101.237 208.78 99.2923 207.562 97.8469C206.215 96.2478 204.066 95.883 202.081 95.9159C200.745 95.9379 199.387 96.1107 198.056 95.9104C197.692 95.8556 197.32 96.0037 197.213 96.3904C197.126 96.7141 197.323 97.1776 197.692 97.2352Z" fill="#231F20"/>
<path d="M197.189 126.081C188.458 129.765 187.448 145.051 187.352 147.067C187.352 147.099 187.305 147.102 187.3 147.069C186.96 145.413 186.309 143.523 185.471 141.54C179.858 128.251 168.957 117.938 155.522 112.735C154.077 112.175 152.563 111.613 150.994 111.051C174.364 86.8729 142.57 81.6204 142.57 81.6204C55.6351 64.0033 71.8208 99.583 74.9856 105.417C67.12 107.965 59.6459 111.92 52.9603 117.699C9.88432 154.93 34.9896 199.314 34.9896 199.314H160.763L161.502 181.313C161.502 181.313 163.717 199.314 193.991 199.314C224.265 199.314 221.557 142.354 222.543 134.71C223.529 127.066 206.543 122.134 197.191 126.079L197.189 126.081Z" fill="#EA5504"/>
<path d="M225.037 36.238C225.037 24.4192 215.474 14.8386 203.677 14.8386C191.88 14.8386 182.317 24.4192 182.317 36.238C182.317 43.7368 186.175 50.3223 192 54.1458V67.8022L215.356 65.3995V54.1458C221.182 50.3251 225.04 43.7368 225.04 36.238H225.037Z" fill="#FABE00"/>
<path d="M210.88 73.0491L209.101 74.5384H197.542L195.877 73.0025C192.441 69.8345 190.484 65.3665 190.484 60.6873V60.2073H216.868C216.868 65.1635 214.675 69.8647 210.88 73.0464V73.0491Z" fill="#BEBCBA"/>
<path d="M217.199 64.2092H190.158C190.104 64.2092 190.059 64.2534 190.059 64.308V66.0716C190.059 66.1261 190.104 66.1703 190.158 66.1703H217.199C217.253 66.1703 217.297 66.1261 217.297 66.0716V64.308C217.297 64.2534 217.253 64.2092 217.199 64.2092Z" fill="black"/>
<path d="M197.21 74.2341H209.196V77.6846C209.196 77.9013 209.021 78.0768 208.805 78.0768H197.602C197.386 78.0768 197.21 77.9013 197.21 77.6846V74.2341Z" fill="black"/>
<path d="M200.011 60.3691C200.091 57.3932 200.011 54.4145 199.915 51.4385C199.806 48.0978 199.652 44.757 199.496 41.419C199.428 39.9544 199.357 38.4925 199.291 37.0278C199.239 35.8868 199.253 34.7047 198.823 33.6267C198.593 33.0535 198.256 32.4912 197.695 32.1922C197.082 31.8658 196.301 31.9289 195.71 32.2855C194.522 32.9986 194.182 34.7239 194.544 35.9801C195.015 37.6203 196.677 38.007 198.188 37.9713C200.134 37.9275 202.075 37.8507 204.022 37.8315C205.109 37.8205 206.193 37.8095 207.28 37.7985C207.989 37.7931 208.698 37.8315 209.399 37.6943C210.146 37.5462 210.831 37.1101 211.178 36.4162C211.45 35.8758 211.565 35.2532 211.589 34.6498C211.614 34.0244 211.518 33.3415 211.189 32.7984C210.812 32.1703 210.193 31.896 209.484 31.8439C208.309 31.7534 207.447 32.5214 207.168 33.6267C206.913 34.6361 207.014 35.7058 207.102 36.7288C207.19 37.7492 207.135 38.764 207.121 39.7871C207.047 45.9831 207.209 52.1818 207.378 58.3751C207.395 58.9895 207.414 59.6039 207.43 60.2182C207.455 61.0987 208.827 61.1014 208.799 60.2182C208.632 54.5543 208.495 48.8877 208.476 43.2238C208.471 41.8881 208.476 40.5496 208.495 39.2138C208.509 38.3169 208.528 37.4447 208.452 36.5533C208.411 36.0678 208.375 35.5824 208.375 35.0941C208.375 34.8829 208.383 34.669 208.402 34.4578C208.408 34.3975 208.413 34.3344 208.422 34.274C208.4 34.4359 208.43 34.2411 208.433 34.2192C208.457 34.1067 208.479 33.9943 208.512 33.8818C208.523 33.8434 208.624 33.5801 208.553 33.7392C208.591 33.6514 208.643 33.5746 208.687 33.4896C208.706 33.4512 208.786 33.3662 208.682 33.4896C208.714 33.4512 208.747 33.4183 208.78 33.3799C208.788 33.3716 208.909 33.2729 208.824 33.3387C208.739 33.4018 208.903 33.2949 208.92 33.2839C209.059 33.1989 208.783 33.3195 208.944 33.2702C208.977 33.2592 209.013 33.251 209.049 33.24C209.076 33.2318 209.257 33.2043 209.092 33.2235C209.153 33.2153 209.215 33.2126 209.278 33.2126C209.322 33.2126 209.366 33.2126 209.41 33.2126C209.41 33.2126 209.634 33.2345 209.511 33.2181C209.582 33.229 209.654 33.2427 209.722 33.2647C209.911 33.3195 209.634 33.2126 209.801 33.2976C209.821 33.3086 209.968 33.4292 209.867 33.3387C209.914 33.3799 209.957 33.4265 209.996 33.4759C209.925 33.3854 210.072 33.6267 210.092 33.6679C210.053 33.5828 210.141 33.8407 210.155 33.8928C210.204 34.0903 210.196 34.0574 210.209 34.2466C210.245 34.8034 210.19 35.1517 210.007 35.6838C209.946 35.8594 210.048 35.607 209.999 35.703C209.966 35.7661 209.938 35.8292 209.9 35.8868C209.845 35.9718 209.755 36.0706 209.684 36.1227C209.481 36.2763 209.226 36.3421 208.942 36.3887C208.4 36.4792 207.723 36.4244 207.132 36.4326C205.095 36.4573 203.058 36.4628 201.024 36.5039C200.197 36.5204 199.371 36.5506 198.544 36.589C197.911 36.6191 197.238 36.652 196.635 36.4326C195.68 36.0843 195.568 34.8747 195.951 34.0327C196.061 33.794 196.121 33.6926 196.304 33.5307C196.455 33.3991 196.217 33.5719 196.389 33.4731C196.392 33.4731 196.592 33.3799 196.477 33.4238C196.526 33.4046 196.578 33.3908 196.63 33.3771C196.679 33.3634 196.729 33.3552 196.778 33.347C196.712 33.3579 196.723 33.3607 196.802 33.3524C196.83 33.3524 197.024 33.3826 196.874 33.3524C196.909 33.3607 196.959 33.3689 196.991 33.3826C197.172 33.4649 196.871 33.3168 197.043 33.41C197.065 33.421 197.21 33.5362 197.098 33.4402C197.284 33.5993 197.306 33.6542 197.446 33.9092C197.52 34.0464 197.599 34.2768 197.665 34.5264C197.722 34.7403 197.794 35.1078 197.81 35.234C197.818 35.2998 197.846 35.5988 197.854 35.7606C197.87 36.0761 197.881 36.3887 197.895 36.7042C197.952 38.018 198.015 39.329 198.078 40.6428C198.36 46.6194 198.692 52.6097 198.659 58.5945C198.656 59.187 198.648 59.7794 198.631 60.3746C198.607 61.2578 199.976 61.2578 200 60.3746L200.011 60.3691Z" fill="#191C3C"/>
<path d="M217.199 60.2129H190.158C190.104 60.2129 190.059 60.2571 190.059 60.3116V62.0753C190.059 62.1298 190.104 62.174 190.158 62.174H217.199C217.253 62.174 217.297 62.1298 217.297 62.0753V60.3116C217.297 60.2571 217.253 60.2129 217.199 60.2129Z" fill="black"/>
<path d="M203.746 0H202.815C201.839 0 201.049 0.792058 201.049 1.76911V10.2252C201.049 11.2022 201.839 11.9943 202.815 11.9943H203.746C204.721 11.9943 205.511 11.2022 205.511 10.2252V1.76911C205.511 0.792058 204.721 0 203.746 0Z" fill="#FABE00"/>
<path d="M222.238 4.82544L221.432 4.35917C220.587 3.87064 219.507 4.16055 219.019 5.0067L214.799 12.3299C214.311 13.176 214.601 14.258 215.445 14.7465L216.252 15.2128C217.096 15.7013 218.176 15.4114 218.664 14.5653L222.884 7.24209C223.372 6.39594 223.082 5.31396 222.238 4.82544Z" fill="#FABE00"/>
<path d="M235.386 17.4557L235.852 18.2633C236.339 19.1089 236.049 20.1917 235.205 20.6799L227.896 24.908C227.052 25.3962 225.971 25.1061 225.483 24.2604L225.018 23.4528C224.531 22.6072 224.82 21.5244 225.664 21.0362L232.974 16.8081C233.818 16.3199 234.899 16.6101 235.386 17.4557Z" fill="#FABE00"/>
<path d="M240.927 36.7261V35.7935C240.927 34.8165 240.137 34.0244 239.161 34.0244H230.721C229.745 34.0244 228.955 34.8165 228.955 35.7935V36.7261C228.955 37.7031 229.745 38.4952 230.721 38.4952H239.161C240.137 38.4952 240.927 37.7031 240.927 36.7261Z" fill="#FABE00"/>
<path d="M236.109 55.2577L236.574 54.4501C237.062 53.6039 236.772 52.5219 235.928 52.0334L228.618 47.8054C227.773 47.3169 226.693 47.6068 226.206 48.4529L225.74 49.2605C225.253 50.1067 225.542 51.1887 226.387 51.6772L233.696 55.9052C234.541 56.3937 235.621 56.1038 236.109 55.2577Z" fill="#FABE00"/>
<path d="M172.151 55.6962L172.617 56.5038C173.104 57.3499 174.184 57.6399 175.029 57.1513L182.339 52.9233C183.183 52.4348 183.473 51.3528 182.985 50.5066L182.52 49.699C182.032 48.8529 180.952 48.563 180.107 49.0515L172.798 53.2795C171.953 53.768 171.664 54.85 172.151 55.6962Z" fill="#FABE00"/>
<path d="M167.099 37.2336L167.099 38.1662C167.099 39.1432 167.889 39.9354 168.864 39.9356L177.305 39.9371C178.28 39.9373 179.071 39.1453 179.071 38.1683L179.071 37.2357C179.072 36.2587 178.281 35.4665 177.306 35.4663L168.865 35.4648C167.89 35.4647 167.099 36.2566 167.099 37.2336Z" fill="#FABE00"/>
<path d="M171.917 18.714L171.451 19.5215C170.963 20.3676 171.253 21.4496 172.097 21.9383L179.406 26.1676C180.251 26.6563 181.331 26.3666 181.818 25.5205L182.284 24.7129C182.772 23.8669 182.483 22.7849 181.638 22.2962L174.329 18.0669C173.485 17.5782 172.405 17.8679 171.917 18.714Z" fill="#FABE00"/>
<path d="M185.336 5.08976L184.53 5.5559C183.685 6.04427 183.395 7.1262 183.883 7.97243L188.102 15.2963C188.589 16.1426 189.669 16.4327 190.514 15.9443L191.32 15.4782C192.165 14.9898 192.454 13.9079 191.967 13.0616L187.748 5.73772C187.26 4.89149 186.181 4.60139 185.336 5.08976Z" fill="#FABE00"/>
<path d="M187.193 144.642C185.928 151.932 184.847 159.256 183.946 166.601C183.691 168.669 183.453 170.74 183.229 172.811C183.188 173.178 183.571 173.496 183.913 173.496C184.316 173.496 184.556 173.181 184.598 172.811C185.383 165.575 186.347 158.362 187.489 151.173C187.817 149.116 188.157 147.058 188.513 145.007C188.575 144.642 188.414 144.269 188.033 144.162C187.705 144.072 187.256 144.275 187.19 144.642H187.193Z" fill="#231F20"/>
<path d="M146.291 147.996C145.645 147.933 145.094 148.432 144.637 148.896C140.128 153.477 135.616 158.054 131.107 162.635L139.203 162.229C141.636 158.732 144.07 155.232 146.504 151.735C146.937 151.112 147.386 150.448 147.454 149.694C147.52 148.937 147.049 148.076 146.293 147.999L146.291 147.996Z" fill="white"/>
<path d="M146.291 147.311C144.952 147.239 143.986 148.581 143.145 149.434C142.138 150.457 141.13 151.48 140.123 152.503C138.108 154.549 136.093 156.595 134.078 158.641C132.925 159.81 131.775 160.981 130.622 162.149C130.223 162.555 130.499 163.351 131.107 163.32C133.295 163.211 135.485 163.101 137.672 162.991C138.11 162.969 138.546 162.947 138.984 162.925C139.055 162.923 139.129 162.92 139.2 162.914C139.589 162.881 139.742 162.646 139.947 162.352C140.166 162.037 140.388 161.719 140.607 161.403C142.263 159.022 143.92 156.639 145.579 154.258C146.044 153.589 146.51 152.92 146.978 152.248C147.386 151.661 147.802 151.065 148.013 150.372C148.371 149.195 147.857 147.533 146.474 147.338C146.107 147.286 145.738 147.429 145.631 147.818C145.543 148.139 145.74 148.611 146.11 148.663C146.803 148.762 146.866 149.582 146.638 150.171C146.469 150.61 146.178 151.008 145.91 151.392C145.573 151.877 145.237 152.36 144.9 152.843C143.567 154.76 142.233 156.677 140.9 158.592C140.136 159.689 139.372 160.789 138.609 161.886C138.806 161.773 139.003 161.658 139.2 161.546L132.101 161.902C131.77 161.919 131.438 161.935 131.104 161.952C131.266 162.341 131.427 162.733 131.589 163.123C135.477 159.176 139.361 155.232 143.249 151.285C143.794 150.734 144.336 150.18 144.881 149.628C145.256 149.247 145.699 148.655 146.291 148.687C147.172 148.734 147.17 147.363 146.291 147.316V147.311Z" fill="#231F20"/>
<path d="M115.433 175.189C115.97 174.621 116.482 173.987 117.01 173.299C118.716 171.074 119.291 168.181 121.128 166.039C123.855 162.857 128.175 161.54 132.052 160.41C137.168 158.918 142.283 157.423 147.399 155.931C148.155 155.712 149.048 155.514 149.666 155.997C150.269 156.469 150.31 157.412 149.962 158.095C149.617 158.778 148.985 159.261 148.371 159.722C146.734 160.948 145.1 162.177 143.463 163.403C142.948 163.79 139.205 165.923 140.377 166.53C140.782 166.738 141.27 166.579 141.702 166.434C142.45 166.184 143.241 165.995 144.018 166.115C144.796 166.239 145.557 166.735 145.79 167.49C146.033 168.277 145.647 169.152 145.037 169.706C144.426 170.26 143.63 170.553 142.849 170.811C139.569 171.897 136.161 172.602 132.717 172.898C130.611 173.079 130.472 172.885 129.941 175.002C129.497 176.771 129.076 178.549 128.643 180.323C133.549 178.642 138.452 176.96 143.359 175.282C144.215 175.751 144.448 176.941 144.136 177.868C143.824 178.795 143.107 179.52 142.411 180.205C139.225 183.357 136.038 186.511 132.851 189.662C130.636 191.854 128.377 194.076 125.626 195.537C120.61 198.201 114.626 198.014 108.956 197.762C106.916 197.671 104.816 197.567 102.96 196.709C99.5132 195.118 98.7001 189.624 98.6426 186.245C98.5933 183.425 99.5899 180.724 101.794 178.902C102.859 178.022 104.02 178.373 105.334 178.425C107.141 178.499 108.964 178.439 110.727 178C112.791 177.487 114.182 176.516 115.436 175.189H115.433Z" fill="white"/>
<path d="M115.918 175.671C116.991 174.525 117.977 173.266 118.705 171.87C119.384 170.567 119.912 169.19 120.649 167.915C122.067 165.463 124.471 163.894 127.025 162.813C129.881 161.606 132.939 160.86 135.906 159.993C139.383 158.979 142.858 157.964 146.335 156.952C147.055 156.743 147.829 156.411 148.582 156.381C149.111 156.359 149.488 156.59 149.497 157.146C149.505 157.758 149.097 158.227 148.662 158.614C148.054 159.157 147.367 159.618 146.718 160.106C145.99 160.652 145.264 161.197 144.536 161.741C144.013 162.133 143.501 162.552 142.953 162.917C142.288 163.362 141.606 163.778 140.969 164.264C140.369 164.722 139.449 165.372 139.465 166.228C139.476 166.812 139.977 167.185 140.511 167.278C141.349 167.426 142.157 166.938 142.97 166.801C143.586 166.697 144.284 166.746 144.78 167.169C145.226 167.55 145.281 168.107 145.02 168.617C144.714 169.217 144.12 169.579 143.52 169.837C142.77 170.158 141.968 170.378 141.188 170.608C139.528 171.093 137.842 171.483 136.139 171.771C134.672 172.021 133.201 172.147 131.723 172.287C130.877 172.366 130.13 172.575 129.741 173.403C129.511 173.891 129.385 174.421 129.256 174.942C129.04 175.806 128.829 176.67 128.618 177.536C128.408 178.403 128.2 179.267 127.989 180.134C127.871 180.614 128.317 181.154 128.832 180.979C133.738 179.297 138.641 177.616 143.548 175.937C143.372 175.915 143.197 175.891 143.019 175.869C143.999 176.442 143.542 177.813 143.003 178.551C142.587 179.122 142.047 179.604 141.546 180.098C140.936 180.704 140.322 181.308 139.712 181.914C137.33 184.27 134.948 186.626 132.566 188.982C130.464 191.064 128.345 193.198 125.76 194.682C123.255 196.119 120.4 196.796 117.544 197.054C114.59 197.32 111.614 197.194 108.657 197.06C107.149 196.991 105.624 196.898 104.173 196.44C103.111 196.105 102.292 195.603 101.602 194.747C100.335 193.181 99.798 190.94 99.5297 188.941C99.2395 186.774 99.1546 184.385 100.072 182.306C100.562 181.198 101.331 180.065 102.328 179.352C102.823 178.998 103.401 178.974 103.987 179.006C104.696 179.048 105.399 179.119 106.114 179.13C109.098 179.179 112.189 178.757 114.607 176.875C115.077 176.508 115.513 176.105 115.926 175.671C116.534 175.032 115.568 174.061 114.957 174.7C113.93 175.778 112.742 176.639 111.321 177.114C109.525 177.712 107.606 177.805 105.728 177.75C104.931 177.726 104.124 177.58 103.327 177.632C102.396 177.693 101.671 178.074 100.992 178.699C99.8144 179.78 98.963 181.176 98.4702 182.693C98.013 184.105 97.9172 185.589 97.9911 187.062C98.0568 188.368 98.2183 189.676 98.5031 190.951C99.0533 193.401 100.203 196.171 102.621 197.296C104.299 198.077 106.15 198.291 107.978 198.393C109.774 198.494 111.576 198.565 113.372 198.576C116.912 198.598 120.553 198.335 123.89 197.065C127.291 195.771 130.004 193.42 132.572 190.902C135.446 188.082 138.299 185.238 141.163 182.405C141.85 181.725 142.545 181.053 143.222 180.364C143.86 179.717 144.445 179.012 144.766 178.151C145.015 177.479 145.034 176.681 144.788 176.006C144.659 175.652 144.467 175.32 144.199 175.051C144.079 174.931 143.934 174.818 143.788 174.73C143.487 174.547 143.238 174.599 142.926 174.706C139.055 176.033 135.181 177.361 131.31 178.686C130.362 179.009 129.418 179.336 128.471 179.659C128.753 179.942 129.032 180.222 129.314 180.504C129.746 178.729 130.165 176.955 130.612 175.183C130.68 174.911 130.748 174.637 130.833 174.371C130.866 174.27 130.899 174.168 130.94 174.067C130.885 174.207 131.006 173.946 131.03 173.902C131.113 173.743 130.976 173.954 131.066 173.85C131.195 173.699 131 173.88 131.113 173.806C131.263 173.705 131.069 173.792 131.154 173.779C131.244 173.762 131.332 173.724 131.425 173.707C131.468 173.699 131.512 173.694 131.553 173.685C131.666 173.666 131.378 173.702 131.573 173.685C131.682 173.674 131.792 173.663 131.901 173.655C132.199 173.631 132.498 173.609 132.796 173.584C133.697 173.504 134.595 173.397 135.488 173.266C137.24 173.011 138.978 172.651 140.687 172.188C141.513 171.963 142.337 171.716 143.151 171.442C143.939 171.176 144.708 170.866 145.363 170.339C146.578 169.36 147.033 167.511 145.864 166.31C145.316 165.748 144.555 165.462 143.786 165.405C142.907 165.339 142.086 165.619 141.256 165.863C141.119 165.904 140.963 165.962 140.818 165.945C140.692 165.932 140.654 165.852 140.752 165.962C140.684 165.888 140.837 166.124 140.843 166.137C140.823 166.071 140.854 166.093 140.851 166.233C140.854 166.11 140.81 166.42 140.84 166.291C140.856 166.22 140.917 166.189 140.821 166.321C140.862 166.266 140.892 166.198 140.93 166.14C140.826 166.296 140.979 166.085 141.015 166.047C141.149 165.901 141.297 165.767 141.45 165.638C142.001 165.172 142.786 164.673 143.49 164.217C144.703 163.433 145.831 162.489 146.986 161.623C147.709 161.082 148.437 160.547 149.152 159.993C149.781 159.505 150.37 158.948 150.677 158.194C150.948 157.53 150.959 156.749 150.63 156.101C150.271 155.391 149.524 155.029 148.752 155.012C147.966 154.996 147.189 155.281 146.444 155.501C145.527 155.769 144.607 156.035 143.69 156.304L138.313 157.873C135.099 158.811 131.844 159.661 128.673 160.745C125.911 161.688 123.146 162.947 121.087 165.084C120.019 166.192 119.277 167.509 118.628 168.894C117.99 170.254 117.405 171.656 116.501 172.865C116.025 173.504 115.51 174.122 114.965 174.706C114.363 175.348 115.329 176.321 115.934 175.677L115.918 175.671Z" fill="#231F20"/>
<path d="M129.618 167.928C133.336 167.621 137.051 167.314 140.769 167.01C141.138 166.979 141.453 166.716 141.453 166.324C141.453 165.976 141.138 165.608 140.769 165.638C137.051 165.945 133.336 166.253 129.618 166.557C129.248 166.587 128.933 166.851 128.933 167.243C128.933 167.591 129.248 167.959 129.618 167.928Z" fill="#231F20"/>
<path d="M127.97 180.181C127.523 183.76 125.577 187.065 122.754 189.281C122.464 189.509 122.516 190.011 122.754 190.252C123.042 190.54 123.43 190.483 123.723 190.252C126.847 187.797 128.848 184.114 129.338 180.181C129.385 179.813 128.991 179.495 128.654 179.495C128.246 179.495 128.016 179.81 127.97 180.181Z" fill="#231F20"/>
<path d="M75.8891 167.712C79.9711 168.417 84.0559 169.121 88.1379 169.826C90.1255 170.169 92.1186 170.498 94.1035 170.86C95.8885 171.187 97.7119 171.582 99.3162 172.465C100.773 173.269 102.079 174.484 102.623 176.094C102.905 176.925 104.228 176.568 103.943 175.729C102.738 172.169 99.1191 170.518 95.7078 169.782C93.7038 169.352 91.6669 169.05 89.6491 168.702C87.563 168.343 85.4768 167.98 83.3906 167.621C81.0115 167.21 78.6351 166.801 76.256 166.39C75.8919 166.327 75.5195 166.486 75.4128 166.87C75.3224 167.199 75.525 167.649 75.8919 167.714L75.8891 167.712Z" fill="#231F20"/>
<path d="M98.9521 176.368C94.8372 179.969 92.4608 185.406 92.4061 190.861C92.3896 192.394 92.5676 193.933 92.9262 195.425C93.1316 196.284 94.4512 195.919 94.2458 195.06C93.0522 190.093 94.1774 184.714 97.063 180.526C97.8761 179.347 98.8426 178.28 99.9185 177.336C100.198 177.092 100.168 176.615 99.9185 176.365C99.642 176.088 99.2286 176.121 98.9493 176.365L98.9521 176.368Z" fill="#231F20"/>
<path d="M95.7132 175.356C92.5374 177.059 89.9174 179.777 88.3431 183.025C88.1816 183.357 88.2528 183.765 88.5895 183.963C88.8907 184.138 89.3643 184.051 89.5259 183.716C91.0097 180.661 93.4162 178.143 96.4059 176.538C97.1834 176.121 96.4935 174.936 95.7159 175.353L95.7132 175.356Z" fill="#231F20"/>
<path d="M196.696 134.573C201.763 132.864 207.255 132.447 212.52 133.407C214.029 133.682 215.515 134.068 216.969 134.554C217.807 134.834 218.165 133.512 217.333 133.232C212.063 131.465 206.368 131.087 200.901 132.072C199.351 132.351 197.824 132.746 196.332 133.248C195.502 133.528 195.858 134.853 196.696 134.57V134.573Z" fill="#231F20"/>
<path d="M136.834 98.5848L116.463 119.191L94.0459 99.0839L99.7623 74.3521H131.466L136.834 98.5848Z" fill="white"/>
<path d="M116.49 120.135L93.2876 99.3225L99.2176 73.6636H132.013L137.582 98.7987L116.49 120.132V120.135ZM94.8043 98.8425L116.433 118.242L136.082 98.368L130.913 75.0377H100.302L94.8016 98.8425H94.8043Z" fill="#231F20"/>
<path d="M102.237 76.7218C98.5222 78.6308 94.6702 80.186 90.5745 81.0061C89.0961 81.3023 87.5629 81.497 86.0873 81.2008C84.0066 80.7811 82.2353 79.4317 80.6939 77.9725C70.534 68.3617 67.6101 51.9076 73.8331 39.3757C75.692 35.6345 78.8924 31.918 83.0621 31.9016C82.1257 28.506 83.1031 24.7977 84.973 21.8163C88.283 16.5364 93.7558 12.1122 100.023 11.2839C103.029 10.8862 106.136 11.1879 109.008 12.1561C109.681 12.3838 116.753 16.3142 116.277 16.6872C121.15 12.8555 127.77 10.4419 133.741 13.2011C138.748 15.5133 140.758 20.1788 141.82 25.275C143.172 31.7727 141.672 38.605 138.863 44.6172C136.364 49.9684 132.87 54.7108 129.36 59.4256C126.111 63.7922 119.841 66.0934 115.231 68.9651C110.968 71.6229 106.7 74.4288 102.237 76.7218Z" fill="#FABE00"/>
<path d="M131.534 37.5902C131.534 37.5902 152.136 61.1345 137.278 79.2754C130.269 87.833 120.906 89.336 112.972 88.5378C109.547 88.1923 106.391 87.4188 103.801 86.5987C99.6666 85.2876 96.9836 83.8586 96.9836 83.8586C96.9836 83.8586 80.3927 59.9605 85.3371 45.7446C90.2815 31.5286 120.873 23.174 131.537 37.593L131.534 37.5902Z" fill="white"/>
<path d="M116.578 89.4099C115.379 89.4099 114.152 89.3468 112.901 89.2207C112.526 89.1823 112.249 88.8476 112.288 88.4691C112.326 88.0934 112.663 87.8163 113.038 87.8547C123.047 88.8641 131.022 85.8305 136.747 78.8391C142.732 71.5323 143.608 62.4728 139.356 51.9185C136.147 43.9588 131.069 38.1002 131.019 38.0399L130.984 37.996C126.732 32.2471 118.407 29.6963 108.709 31.1774C97.7747 32.845 88.4307 38.9258 85.9832 45.9638C81.2113 59.6861 97.3805 83.2249 97.5448 83.4608C97.761 83.7707 97.6844 84.1986 97.3723 84.4152C97.0629 84.6319 96.6358 84.5551 96.4195 84.2452C95.7351 83.2578 79.6891 59.8946 84.6882 45.514C87.2946 38.0179 97.0876 31.5641 108.501 29.8224C113.238 29.0983 117.818 29.2958 121.749 30.3874C126.174 31.6162 129.642 33.8927 132.065 37.1594C132.462 37.6175 137.377 43.3691 140.61 51.3727C145.018 62.289 144.048 72.0863 137.804 79.7113C132.574 86.0966 125.287 89.4099 116.575 89.4099H116.578Z" fill="#231F20"/>
<path d="M86.7443 71.2335C86.7443 71.2335 99.0341 75.1173 98.8316 67.8434C98.629 60.5695 95.2095 54.8864 95.2095 54.8864C95.2095 54.8864 111.069 52.7278 111.417 38.4268C111.417 38.4268 123.003 43.8822 131.534 37.593C131.534 37.593 135.192 30.2231 126.891 25.0721C118.59 19.9211 94.7824 26.3694 88.8551 32.1567C82.9279 37.9441 73.4716 53.1968 86.7443 71.2363V71.2335Z" fill="#FABE00"/>
<path d="M93.1371 72.9505C89.9613 72.9505 86.7471 71.9521 86.5391 71.8863C86.1777 71.7738 85.9778 71.3871 86.0928 71.025C86.205 70.663 86.5911 70.4628 86.9497 70.578C88.9373 71.2061 94.6209 72.4376 97.0055 70.6328C97.8077 70.0239 98.1828 69.1188 98.1472 67.8598C97.9501 60.8465 94.6565 55.2923 94.6237 55.2374L94.0871 54.346L95.1165 54.2034C95.1548 54.1979 99.0287 53.6466 102.875 51.4002C107.951 48.438 110.593 44.066 110.733 38.4048L110.757 37.3543L111.707 37.7987C111.82 37.8508 122.902 42.9414 130.987 37.1349C131.436 36.1036 133.653 30.0667 126.53 25.6453C126.209 25.4451 126.108 25.0227 126.308 24.7018C126.508 24.3809 126.929 24.2794 127.25 24.4796C135.978 29.8966 132.186 37.8096 132.145 37.8892L132.071 38.0373L131.937 38.136C124.495 43.6216 115.028 40.6046 112.047 39.4306C111.614 45.0671 108.682 49.6065 103.521 52.6043C100.589 54.3049 97.7119 55.0756 96.2609 55.3828C97.2273 57.2616 99.3491 62.0177 99.5133 67.8187C99.5599 69.5275 98.9932 70.8413 97.8269 71.7244C96.6086 72.646 94.8783 72.945 93.1343 72.945L93.1371 72.9505Z" fill="#231F20"/>
<path d="M97.9664 71.3433C97.9664 71.3433 80.6665 62.5855 81.4878 68.7925C82.3091 74.9994 84.5322 85.2219 90.7606 85.6031C96.9891 85.9844 100.606 77.4652 100.606 77.4652L97.9664 71.3433Z" fill="white"/>
<path d="M91.1741 86.3024C91.0235 86.3024 90.8729 86.2969 90.7196 86.2886C84.3789 85.8992 81.8301 76.6093 80.8089 68.8828C80.6282 67.5251 81.1949 66.812 81.7014 66.4499C84.9128 64.1652 96.0692 69.6151 98.2731 70.7314C98.6098 70.9015 98.7467 71.3157 98.5742 71.653C98.4045 71.9904 97.9938 72.1275 97.6544 71.9547C92.8359 69.5164 84.4611 66.1674 82.4926 67.5662C82.3721 67.6513 82.0546 67.8762 82.1641 68.699C82.9443 74.607 85.1044 84.5662 90.799 84.9172C96.4771 85.2601 99.9377 77.2758 99.9732 77.1962C100.121 76.8479 100.524 76.6861 100.871 76.8342C101.219 76.9823 101.38 77.3855 101.233 77.7338C101.082 78.0904 97.5229 86.2996 91.1713 86.2996L91.1741 86.3024Z" fill="#231F20"/>
<path d="M91.9214 77.1688C89.055 77.1688 87.4807 75.7974 87.3986 75.7234C87.1166 75.471 87.092 75.0377 87.3439 74.7552C87.5957 74.4727 88.0256 74.448 88.3075 74.6976C88.3979 74.7771 90.3992 76.4639 94.1171 75.504C94.4839 75.4107 94.8563 75.6301 94.9494 75.9977C95.0424 76.3652 94.8234 76.7382 94.4566 76.8315C93.523 77.0728 92.6743 77.1688 91.9187 77.1688H91.9214Z" fill="#231F20"/>
<path d="M127.742 59.6011C128.89 59.0032 130.573 59.3817 131.304 60.5172C132.06 61.6911 131.781 63.3149 130.68 64.2255C130.395 64.4614 130.436 64.9496 130.68 65.1964C130.962 65.4789 131.362 65.4323 131.649 65.1964C132.857 64.1981 133.333 62.4728 132.969 60.9698C132.596 59.4256 131.241 58.2599 129.689 58.0185C128.775 57.8759 127.877 57.9911 127.053 58.419C126.724 58.589 126.628 59.0498 126.806 59.357C127 59.6889 127.414 59.7739 127.742 59.6039V59.6011Z" fill="#231F20"/>
<path d="M121.355 61.59C122.441 60.6161 122.533 58.9446 121.561 57.8565C120.589 56.7684 118.921 56.6758 117.835 57.6497C116.749 58.6236 116.656 60.2952 117.628 61.3833C118.6 62.4713 120.269 62.5639 121.355 61.59Z" fill="black"/>
<path d="M114.319 57.0202C116.534 55.9286 119.239 56.7596 120.506 58.8606C120.961 59.6149 122.146 58.9265 121.689 58.1694C120.923 56.8995 119.734 55.9368 118.33 55.4623C116.783 54.9412 115.08 55.1194 113.629 55.8353C113.298 55.9999 113.208 56.4716 113.383 56.7734C113.58 57.1135 113.985 57.182 114.319 57.0202Z" fill="black"/>
<path d="M138.131 56.5111C138.568 55.1179 137.795 53.6338 136.404 53.1961C135.014 52.7585 133.532 53.5331 133.096 54.9262C132.659 56.3194 133.432 57.8035 134.822 58.2412C136.213 58.6788 137.694 57.9042 138.131 56.5111Z" fill="black"/>
<path d="M130.335 53.183C132.55 52.0914 135.255 52.9225 136.522 55.0235C136.977 55.7777 138.162 55.0893 137.705 54.3323C136.939 53.0624 135.75 52.0996 134.346 51.6251C132.799 51.104 131.096 51.2823 129.645 51.9982C129.314 52.1627 129.224 52.6345 129.399 52.9362C129.596 53.2763 130.001 53.3449 130.335 53.183Z" fill="black"/>
<path d="M111.948 53.5534C111.242 53.9374 110.555 54.3817 109.777 54.5792C109 54.7767 108.088 54.6779 107.535 54.0965C106.746 53.2654 107.023 51.894 107.56 50.8819C109.123 47.9224 112.556 46.071 115.882 46.3892C117.287 46.5236 118.735 47.0749 119.551 48.2296C120.044 48.9263 120.222 49.8725 120.008 50.7009C119.751 51.7047 119.329 51.7569 118.431 51.7459C116.222 51.7157 113.867 52.5084 111.948 53.5534Z" fill="#FABE00"/>
<path d="M133.128 48.6189C132.082 48.8301 131.093 49.2936 130.037 49.4225C128.98 49.5542 127.751 49.2442 127.241 48.3089C126.842 47.5739 127 46.6276 127.46 45.9282C127.92 45.2288 128.635 44.7405 129.371 44.3456C130.954 43.4953 132.755 42.9961 134.543 43.0812C134.721 43.0894 138.666 49.8038 138.047 49.4499C136.714 48.6902 134.768 48.287 133.13 48.6161L133.128 48.6189Z" fill="#FABE00"/>
<path d="M132.457 70.1007C133.097 69.6838 133.826 69.4588 134.507 70.0623C135.624 71.0469 134.335 73.2905 133.853 74.3328C132.618 77.0043 130.713 79.9117 127.63 80.5535C125.558 80.9841 123.439 80.1585 121.87 78.8146C120.912 77.9945 117.796 75.1145 119.652 73.8199C120.381 73.3125 121.366 73.6142 122.234 73.8117C124.09 74.2313 126.075 74.053 127.824 73.3043C129.18 72.7255 130.362 71.8314 131.474 70.8769C131.756 70.6328 132.093 70.3365 132.457 70.1007Z" fill="black"/>
<path d="M78.7007 109.161C81.4166 111.981 84.4336 114.509 87.6724 116.704C90.9166 118.901 94.3854 120.744 98.0102 122.228C100.039 123.059 102.117 123.764 104.228 124.348C105.079 124.584 105.44 123.259 104.592 123.026C100.912 122.011 97.3477 120.615 93.961 118.854C90.5936 117.104 87.3959 115.017 84.4583 112.611C82.7773 111.235 81.1784 109.756 79.6672 108.193C79.0539 107.556 78.0875 108.527 78.698 109.164L78.7007 109.161Z" fill="#231F20"/>
<path d="M121.259 123.928C128.249 122.214 134.962 119.356 141.042 115.5C142.751 114.416 144.41 113.253 146.011 112.016C146.304 111.791 146.46 111.427 146.258 111.078C146.091 110.79 145.617 110.604 145.322 110.831C139.712 115.157 133.41 118.58 126.716 120.892C124.805 121.553 122.861 122.124 120.898 122.603C120.044 122.812 120.405 124.137 121.262 123.926L121.259 123.928Z" fill="#231F20"/>
<path d="M117.593 129.557C120.794 134.919 123.398 140.629 125.328 146.57C125.878 148.265 126.374 149.98 126.817 151.707C127.036 152.56 128.356 152.198 128.137 151.343C126.554 145.18 124.279 139.195 121.372 133.539C120.556 131.954 119.691 130.396 118.776 128.865C118.324 128.108 117.142 128.797 117.593 129.557Z" fill="#231F20"/>
<path d="M105.591 131.098C103.07 137.744 101.356 144.678 100.458 151.732C100.203 153.734 100.017 155.745 99.8993 157.761C99.8473 158.641 101.216 158.639 101.268 157.761C101.684 150.745 102.938 143.789 104.992 137.069C105.569 135.179 106.21 133.312 106.911 131.463C107.042 131.117 106.766 130.711 106.432 130.618C106.046 130.511 105.722 130.75 105.588 131.098H105.591Z" fill="#231F20"/>
<path d="M48.0351 156.677C52.3033 157.637 56.6591 158.238 61.0286 158.46C65.3898 158.682 69.773 158.521 74.1041 157.958C74.6654 157.884 75.2239 157.807 75.7824 157.725C76.2122 157.659 76.4476 157.119 76.3436 156.735C76.2177 156.274 75.7851 156.107 75.3553 156.173C71.1501 156.804 66.8819 157.039 62.6329 156.916C58.3784 156.793 54.1403 156.299 49.9707 155.451C45.7491 154.593 41.6014 153.378 37.5823 151.825C35.3346 150.956 33.1307 149.974 30.9761 148.891C30.8009 149.406 30.6339 149.919 30.4751 150.429C32.1561 151.266 33.8672 152.042 35.6029 152.758C39.6274 154.415 43.7916 155.726 48.0351 156.68V156.677Z" fill="#FABE00"/>
<path d="M37.8315 146.732C41.856 148.389 46.0202 149.7 50.2637 150.654C54.5319 151.614 58.8876 152.215 63.2571 152.437C67.6184 152.659 72.0015 152.497 76.3327 151.935C76.8939 151.864 77.4524 151.784 78.0109 151.702C78.4408 151.636 78.6762 151.096 78.5722 150.712C78.4462 150.251 78.0137 150.084 77.5838 150.149C73.3786 150.78 69.1105 151.016 64.8615 150.893C60.607 150.769 56.3689 150.276 52.1993 149.428C47.9777 148.57 43.8299 147.355 39.8109 145.802C37.6152 144.955 35.4606 143.997 33.3553 142.941C33.1308 143.43 32.9117 143.918 32.7009 144.403C34.3819 145.24 36.093 146.019 37.8315 146.732Z" fill="#FABE00"/>
<path d="M184.765 141.156C184.88 141.005 184.989 140.849 185.099 140.698C184.847 140.13 184.587 139.565 184.316 139.006C183.015 140.909 181.539 142.692 179.897 144.316C176.88 147.297 173.356 149.746 169.51 151.529C167.366 152.522 165.116 153.285 162.816 153.822C161.808 154.058 162.236 155.611 163.243 155.375C167.497 154.382 171.571 152.599 175.21 150.183C178.887 147.744 182.117 144.689 184.765 141.156Z" fill="#FABE00"/>
<path d="M162.843 148.444C167.043 147.201 171.013 145.191 174.514 142.555C177.392 140.391 179.954 137.84 182.125 134.974C181.83 134.483 181.529 133.994 181.216 133.514C180.475 134.532 179.686 135.514 178.843 136.446C176.017 139.573 172.677 142.206 168.968 144.198C166.882 145.319 164.689 146.219 162.419 146.891C161.431 147.185 161.85 148.737 162.846 148.444H162.843Z" fill="#FABE00"/>
<path d="M160.669 144.752C161.135 149.689 161.425 154.645 161.535 159.604C161.644 164.563 161.573 169.525 161.324 174.478C161.181 177.284 160.982 180.084 160.727 182.882C160.694 183.252 161.066 183.568 161.411 183.568C161.808 183.568 162.063 183.252 162.096 182.882C162.548 177.942 162.824 172.989 162.917 168.03C163.013 163.071 162.925 158.109 162.663 153.156C162.512 150.352 162.304 147.549 162.041 144.754C162.005 144.387 161.751 144.069 161.357 144.069C161.014 144.069 160.637 144.384 160.672 144.754L160.669 144.752Z" fill="#231F20"/>
<path d="M78.9089 125.201C80.1984 131.279 80.3681 137.604 79.4619 143.751C78.5502 149.93 76.5982 155.962 73.6633 161.475C72.0207 164.56 70.0769 167.487 67.8456 170.175C67.6101 170.46 67.5663 170.866 67.8456 171.146C68.0892 171.39 68.5766 171.431 68.8147 171.146C72.9187 166.198 76.089 160.526 78.2245 154.459C80.349 148.424 81.4358 142.003 81.3948 135.602C81.3729 131.987 80.9814 128.372 80.2312 124.833C80.0478 123.969 78.7282 124.337 78.9116 125.198L78.9089 125.201Z" fill="#231F20"/>
<path d="M249.316 200H9.68444C9.30663 200 9 199.693 9 199.314C9 198.936 9.30663 198.629 9.68444 198.629H249.316C249.693 198.629 250 198.936 250 199.314C250 199.693 249.693 200 249.316 200Z" fill="#231F20"/>
<path d="M9.68445 63.0215V85.1258C9.68445 88.5845 12.4824 91.3849 15.932 91.3849H58.8602C62.3125 91.3849 65.1078 88.5818 65.1078 85.1258V79.6484L70.7257 75.984C72.1247 75.0707 72.1192 73.0191 70.7174 72.1139L65.1078 68.488V63.0215C65.1078 59.5629 62.3098 56.7625 58.8602 56.7625H15.932C12.4797 56.7625 9.68445 59.5656 9.68445 63.0215Z" fill="#FABE00"/>
<path d="M53.2265 50.7402L55.9252 53.4438L58.6238 50.7402L55.9252 48.0366L53.2265 50.7402Z" fill="#EA5504"/>
<path d="M67.0422 24.0187L72.451 29.4375L77.8599 24.0187L72.451 18.5998L67.0422 24.0187Z" fill="#EA5504"/>
<path d="M28.8844 37.7706L33.7783 42.6736L38.6723 37.7706L33.7783 32.8677L28.8844 37.7706Z" fill="#EA5504"/>
<path d="M55.8487 65.3914H20.1865C19.0873 65.3914 18.1962 66.2841 18.1962 67.3854V71.2473C18.1962 72.3485 19.0873 73.2413 20.1865 73.2413H55.8487C56.9479 73.2413 57.839 72.3485 57.839 71.2473V67.3854C57.839 66.2841 56.9479 65.3914 55.8487 65.3914Z" fill="white"/>
<path d="M42.1708 76.689H20.1865C19.0873 76.689 18.1962 77.5817 18.1962 78.683V82.5449C18.1962 83.6461 19.0873 84.5389 20.1865 84.5389H42.1708C43.27 84.5389 44.1611 83.6461 44.1611 82.5449V78.683C44.1611 77.5817 43.27 76.689 42.1708 76.689Z" fill="white"/>
</svg>
