<?xml version="1.0" encoding="utf-8"?>
<!-- Generator: Adobe Illustrator 27.9.4, SVG Export Plug-In . SVG Version: 9.03 Build 54784)  -->
<svg version="1.1" id="レイヤー_1" xmlns="http://www.w3.org/2000/svg" xmlns:xlink="http://www.w3.org/1999/xlink" x="0px"
	 y="0px" viewBox="0 0 123.3 33" style="enable-background:new 0 0 123.3 33;" xml:space="preserve">
<style type="text/css">
	.st0{clip-path:url(#SVGID_00000055693820331241771490000015313491498624135846_);}
	.st1{fill:#FABE00;}
	.st2{fill:#EA5504;}
</style>
<g>
	<defs>
		<rect id="SVGID_1_" width="147.9" height="33"/>
	</defs>
	<clipPath id="SVGID_00000062174442310201654160000011444244564242252436_">
		<use xlink:href="#SVGID_1_"  style="overflow:visible;"/>
	</clipPath>
	<g style="clip-path:url(#SVGID_00000062174442310201654160000011444244564242252436_);">
		<path d="M123.4,33c-0.1,0-0.2,0-0.3,0v0H123.4z"/>
		<path d="M44.9,12.8l4.9-12.4h2.7l4.9,12.4h-3.1l-0.9-2.3h-4.6l-0.9,2.3H44.9L44.9,12.8z M49.8,7.8h2.7l-1-2.5
			c0-0.1-0.1-0.2-0.1-0.3c0-0.1-0.1-0.2-0.1-0.3s-0.1-0.2-0.1-0.3c0,0.1-0.1,0.2-0.1,0.3C51,4.9,51,5,50.9,5.1
			c0,0.1-0.1,0.2-0.1,0.3L49.8,7.8z"/>
		<path d="M58.5,12.8v-9h2.7v0.8c0.3-0.3,0.6-0.6,1.1-0.8c0.4-0.2,0.9-0.3,1.4-0.3c1,0,1.7,0.3,2.3,0.9c0.6,0.6,0.8,1.4,0.8,2.4v5.9
			h-2.7V8.2c0-0.8-0.1-1.3-0.3-1.6c-0.2-0.3-0.6-0.5-1.1-0.5c-0.5,0-0.9,0.2-1.2,0.5s-0.4,0.8-0.4,1.5v4.6L58.5,12.8L58.5,12.8z"/>
		<path d="M71.9,13c-1.2,0-2.1-0.4-2.7-1.2c-0.6-0.8-1-2-1-3.5c0-0.9,0.2-1.7,0.5-2.5C69,5.1,69.4,4.5,70,4.1
			c0.6-0.4,1.2-0.6,1.9-0.6s1.3,0.3,1.8,0.9V1.2L76.4,0v12.8h-2.7V12C73.4,12.7,72.8,13,71.9,13z M72.4,10.4c0.3,0,0.6,0,0.8-0.1
			c0.2-0.1,0.4-0.2,0.5-0.4V6.6c-0.1-0.2-0.3-0.3-0.6-0.4c-0.2-0.1-0.5-0.2-0.8-0.2c-0.5,0-0.9,0.2-1.1,0.6C71,7,70.9,7.5,70.9,8.2
			c0,0.5,0.1,0.9,0.2,1.2c0.1,0.3,0.3,0.6,0.5,0.7C71.7,10.3,72,10.4,72.4,10.4z"/>
		<path d="M51.1,28.3L48,22c0,0,0,0,0-0.1c0,0,0-0.1,0-0.1V28h-2.8V15.7H48l2.8,6.1c0.1,0.1,0.1,0.2,0.2,0.4c0,0.1,0.1,0.2,0.1,0.4
			c0-0.1,0.1-0.3,0.1-0.4c0-0.1,0.1-0.2,0.1-0.4l2.9-6.1H57V28h-2.8v-6.3c0,0,0,0.1,0,0.1c0,0,0,0.1,0,0.1L51.1,28.3L51.1,28.3z"/>
		<path d="M61.8,28.3c-1,0-1.8-0.3-2.4-0.8c-0.6-0.5-0.9-1.2-0.9-2.1c0-0.6,0.2-1.1,0.5-1.5c0.3-0.4,0.7-0.8,1.3-1
			c0.6-0.2,1.2-0.4,1.9-0.4c0.4,0,0.7,0,1.1,0.1c0.4,0.1,0.6,0.1,0.9,0.2v-0.5c0-0.4-0.1-0.7-0.4-0.9c-0.3-0.2-0.6-0.3-1.1-0.3
			c-0.4,0-0.9,0.1-1.4,0.2c-0.5,0.2-1,0.4-1.5,0.7l-0.8-2c0.6-0.4,1.2-0.7,1.9-0.9c0.7-0.2,1.4-0.3,2.1-0.3c1.3,0,2.3,0.3,2.9,0.9
			c0.6,0.6,1,1.5,1,2.7V28h-2.6v-0.7c-0.3,0.3-0.6,0.5-1,0.6C62.7,28.2,62.3,28.2,61.8,28.3L61.8,28.3z M62.4,26
			c0.3,0,0.6-0.1,0.9-0.2c0.3-0.1,0.6-0.2,0.8-0.4v-0.7c-0.2-0.1-0.5-0.1-0.7-0.2c-0.3,0-0.5-0.1-0.8-0.1c-0.5,0-0.8,0.1-1.1,0.2
			c-0.3,0.2-0.4,0.4-0.4,0.6c0,0.2,0.1,0.4,0.3,0.5C61.7,26,62,26,62.4,26L62.4,26z"/>
		<path d="M68.7,28v-9h2.7v0.8c0.1-0.3,0.4-0.5,0.7-0.7c0.3-0.2,0.7-0.3,1-0.3c0.7,0,1.3,0.3,1.8,0.8L74.5,22
			c-0.3-0.2-0.5-0.4-0.8-0.5c-0.2-0.1-0.5-0.1-0.8-0.1c-0.3,0-0.6,0.1-0.8,0.2c-0.2,0.1-0.4,0.3-0.5,0.6c-0.1,0.3-0.2,0.6-0.2,1v4.8
			L68.7,28L68.7,28z"/>
		<path d="M76.1,28V16.5l2.7-1.2v5.9L81,19h3.1l-2.8,2.7l3.3,6.3h-2.9l-2.4-4.5l-0.6,0.5V28L76.1,28L76.1,28z"/>
		<path d="M89.1,28.3c-0.9,0-1.7-0.2-2.3-0.6c-0.6-0.4-1.1-0.9-1.5-1.6c-0.3-0.7-0.5-1.6-0.5-2.5c0-1,0.2-1.8,0.5-2.5
			c0.3-0.7,0.8-1.3,1.5-1.6c0.6-0.4,1.4-0.6,2.3-0.6c0.8,0,1.5,0.2,2.1,0.5c0.6,0.3,1.1,0.8,1.5,1.4c0.4,0.6,0.5,1.4,0.5,2.4
			c0,0.2,0,0.4,0,0.6c0,0.2,0,0.5-0.1,0.7h-5.7c0,0.3,0.1,0.6,0.2,0.8c0.1,0.2,0.3,0.4,0.6,0.6c0.3,0.1,0.6,0.2,0.9,0.2
			c0.5,0,0.8-0.1,1.2-0.2c0.3-0.1,0.6-0.4,0.9-0.7l1.5,1.5c-0.4,0.5-0.9,0.9-1.5,1.2C90.6,28.1,89.9,28.2,89.1,28.3L89.1,28.3z
			 M87.4,22.4h3.3c0-0.3-0.1-0.6-0.3-0.8c-0.1-0.2-0.3-0.4-0.5-0.5c-0.2-0.1-0.5-0.2-0.8-0.2c-0.4,0-0.8,0.1-1.1,0.4
			C87.7,21.7,87.5,22,87.4,22.4L87.4,22.4z"/>
		<path d="M97.6,28.3c-0.8,0-1.4-0.2-1.7-0.6c-0.4-0.4-0.6-1-0.6-1.9v-4.4H94V19h1.2v-2.5l2.6-1.3V19h1.9v2.3h-1.9v4.1
			c0,0.2,0,0.3,0.1,0.4c0.1,0.1,0.2,0.1,0.4,0.1c0.5,0,1-0.1,1.5-0.4l-0.3,2.2c-0.3,0.1-0.6,0.2-0.9,0.3
			C98.4,28.2,98,28.3,97.6,28.3z"/>
		<path d="M102.8,18.2c-0.4,0-0.8-0.2-1.1-0.5c-0.3-0.3-0.5-0.7-0.5-1.1c0-0.4,0.1-0.8,0.4-1c0.3-0.3,0.7-0.4,1.1-0.4
			c0.4,0,0.8,0.1,1.1,0.4c0.3,0.3,0.4,0.6,0.4,1.1c0,0.4-0.1,0.8-0.4,1.1C103.6,18.1,103.2,18.2,102.8,18.2L102.8,18.2z M101.5,28
			v-9h2.7v9H101.5z"/>
		<path d="M105.9,28v-9h2.7v0.8c0.3-0.3,0.7-0.6,1.1-0.8c0.4-0.2,0.9-0.3,1.4-0.3c1,0,1.7,0.3,2.3,0.9c0.6,0.6,0.8,1.4,0.8,2.4v5.9
			h-2.7v-4.6c0-0.8-0.1-1.3-0.3-1.6c-0.2-0.3-0.6-0.5-1.1-0.5c-0.5,0-0.9,0.2-1.2,0.5c-0.2,0.3-0.4,0.8-0.4,1.5V28H105.9z"/>
		<path d="M119.3,31.8l-1.5-2.3c0.9-0.1,1.6-0.2,2-0.3c0.5-0.1,0.7-0.3,0.9-0.4c0.1-0.2,0.2-0.5,0.2-0.8v-0.3
			c-0.4,0.3-1,0.5-1.7,0.5c-0.8,0-1.5-0.2-2.1-0.6c-0.6-0.4-1-0.9-1.3-1.6c-0.3-0.7-0.5-1.6-0.5-2.6c0-0.9,0.2-1.8,0.5-2.5
			c0.3-0.7,0.8-1.3,1.3-1.6c0.6-0.4,1.2-0.6,2-0.6c0.4,0,0.7,0,1,0.1c0.3,0.1,0.5,0.2,0.7,0.4V19h2.7v7.8c0,0.9-0.1,1.7-0.2,2.3
			c-0.1,0.6-0.4,1.1-0.7,1.5s-0.8,0.6-1.3,0.8C120.8,31.6,120.1,31.7,119.3,31.8L119.3,31.8z M119.6,25.7c0.3,0,0.5,0,0.7-0.1
			c0.2-0.1,0.4-0.2,0.6-0.4v-3.3c-0.1-0.2-0.3-0.3-0.5-0.4c-0.2-0.1-0.5-0.1-0.7-0.1c-0.5,0-0.9,0.2-1.2,0.5
			c-0.3,0.4-0.4,0.9-0.4,1.6c0,0.5,0.1,0.9,0.2,1.2c0.1,0.3,0.3,0.6,0.5,0.7C118.9,25.6,119.2,25.7,119.6,25.7L119.6,25.7z"/>
		<path class="st1" d="M21.7,21.1c0,0.8,0.4,1.4,1.1,1.8c0.6,0.3,0.9,0.8,0.9,1.5V28H21c-0.6,0-1.2-0.3-1.5-0.9
			c-0.3-0.6-1-1.1-1.8-1.1c-0.8,0-1.4,0.4-1.8,1.1c-0.3,0.6-0.8,0.9-1.5,0.9c-2.6,0-8.9,0-12.2,0C1,28,0,27,0,25.7V20
			c0-1,0.6-1.8,1.5-2.2C3,17.2,4,15.9,4,14.2s-1-3-2.4-3.6C0.6,10.2,0,9.2,0,8.1V2.7c0-1.3,1-2.3,2.3-2.3h13.2c1.3,0,2.3,1,2.3,2.3
			V11c0,0.6-0.4,1.2-0.9,1.5c-0.6,0.3-1.1,1-1.1,1.8c0,1.1,0.9,2,2,2c0.7,0,1.4-0.4,1.7-1c0.3-0.5,0.8-0.9,1.5-0.9h2.7v3.7
			c0,0.6-0.3,1.2-0.9,1.5C22.1,19.7,21.7,20.3,21.7,21.1L21.7,21.1z M11.8,6.9c-0.2-1.3-1.2-2.3-2.5-2.5C7.2,4.1,5.5,6,6,8.1
			c0.3,1,1.1,1.8,2,2C10.2,10.7,12.1,9,11.8,6.9L11.8,6.9z M11.8,20.6c-0.2-1.3-1.3-2.3-2.5-2.4C7.1,17.9,5.4,19.9,6,22
			c0.3,1,1.1,1.7,2,2C10.2,24.6,12.1,22.8,11.8,20.6z"/>
		<path class="st2" d="M40,19.3c-0.5-0.3-0.9-0.8-0.9-1.5v-2.1c0-0.9-0.7-1.6-1.6-1.6h-3.6c-0.6,0-1.1,0.3-1.4,0.8
			c-0.2,0.4-0.7,0.6-1.1,0.6c-0.5,0-0.9-0.3-1.1-0.6c-0.3-0.5-0.8-0.8-1.4-0.8h-5.2v3.7c0,0.6-0.3,1.2-0.9,1.5
			c-0.6,0.3-1.1,1-1.1,1.8c0,0.8,0.4,1.4,1.1,1.8c0.6,0.3,0.9,0.8,0.9,1.5V28h4.4l0-4c0-0.7,0.6-1,1.2-1c0.6,0,0.9,0.4,0.9,0.4
			c0.3,0.3,0.7,0.7,1.2,0.7h0.1c0.5,0,0.8-0.3,1.2-0.7c0,0,0.3-0.4,0.9-0.4c0.6,0,1.2,0.3,1.2,1l0,4h4.4v-3.7c0-0.6,0.4-1.2,0.9-1.5
			c0.6-0.3,1.1-1,1.1-1.8C41,20.3,40.6,19.7,40,19.3L40,19.3z"/>
	</g>
</g>
</svg>
